<svg width="142" height="83" viewBox="0 0 142 83" fill="none" xmlns="http://www.w3.org/2000/svg">
<g opacity="0.03">
<path d="M88.1922 17.7581C88.1922 27.5655 79.7948 35.5163 69.4362 35.5163C59.0775 35.5163 50.6812 27.5657 50.6812 17.7581C50.6812 7.95079 59.0775 0 69.4362 0C79.7948 0 88.1922 7.95054 88.1922 17.7581Z" fill="#FF6100"/>
<path d="M41.7031 17.1579C41.7031 24.5413 35.4501 30.5268 27.7361 30.5268C20.0221 30.5268 13.769 24.5413 13.769 17.1579C13.769 9.77564 20.0221 3.79016 27.7361 3.79016C35.4501 3.79016 41.7031 9.77564 41.7031 17.1579Z" fill="#FF6100"/>
<path d="M127.896 17.1579C127.896 24.5413 121.643 30.5268 113.929 30.5268C106.215 30.5268 99.9619 24.5413 99.9619 17.1579C99.9619 9.77564 106.215 3.79016 113.929 3.79016C121.643 3.79016 127.896 9.77564 127.896 17.1579Z" fill="#FF6100"/>
<path d="M42.2994 47.0877C43.8957 45.8902 43.6963 43.4962 42.1 42.498C37.9102 39.9047 32.9219 38.5076 27.734 38.5076C13.1687 38.3082 0.997922 49.682 0 64.048C0 65.2455 0.79767 66.0431 1.79575 66.0431H25.7387C26.9362 66.0431 27.7338 65.4449 28.332 64.4468C31.5246 57.6627 36.3136 51.6772 42.299 47.0876L42.2994 47.0877Z" fill="#FF6100"/>
<path d="M113.931 38.3062C107.946 38.3062 102.359 40.3013 97.7693 43.4941C96.173 44.4921 96.173 46.8862 97.5699 47.8831C102.957 52.2722 107.547 57.86 110.539 64.4437C110.938 65.4418 111.936 66.0401 113.132 66.0401H139.868C141.066 66.0401 141.864 65.042 141.664 64.0449C140.667 49.68 128.496 38.3068 113.93 38.3068L113.931 38.3062Z" fill="#FF6100"/>
<path d="M69.432 45.8895C49.8781 45.8895 33.7172 61.0531 32.3191 80.4063C32.1197 81.8032 33.3172 82.9996 34.9124 82.9996H104.149C105.546 82.9996 106.742 81.8021 106.742 80.4063C105.147 61.2524 88.9849 45.8895 69.4315 45.8895H69.432Z" fill="#FF6100"/>
</g>
</svg>
