<svg width="43" height="43" viewBox="0 0 43 43" fill="none" xmlns="http://www.w3.org/2000/svg">
<path d="M18 3.17543C20.1658 1.925 22.8342 1.925 25 3.17543L35.6195 9.30662C37.7854 10.5571 39.1195 12.8679 39.1195 15.3688V27.6312C39.1195 30.1321 37.7854 32.4429 35.6195 33.6934L25 39.8246C22.8342 41.075 20.1658 41.075 18 39.8246L7.38045 33.6934C5.21464 32.4429 3.88045 30.1321 3.88045 27.6312V15.3688C3.88045 12.8679 5.21465 10.5571 7.38045 9.30662L18 3.17543Z" fill="#FF6100" stroke="#FF3D00" stroke-width="2"/>
<path d="M24.2958 17.8786C24.2958 19.4683 22.9346 20.7571 21.2555 20.7571C19.5764 20.7571 18.2153 19.4683 18.2153 17.8786C18.2153 16.2888 19.5764 15 21.2555 15C22.9346 15 24.2958 16.2888 24.2958 17.8786Z" fill="white"/>
<path d="M16.76 17.7813C16.76 18.9781 15.7464 19.9483 14.496 19.9483C13.2455 19.9483 12.2319 18.9781 12.2319 17.7813C12.2319 16.5846 13.2455 15.6144 14.496 15.6144C15.7464 15.6144 16.76 16.5846 16.76 17.7813Z" fill="white"/>
<path d="M30.7317 17.7813C30.7317 18.9781 29.7181 19.9483 28.4676 19.9483C27.2172 19.9483 26.2036 18.9781 26.2036 17.7813C26.2036 16.5846 27.2172 15.6144 28.4676 15.6144C29.7181 15.6144 30.7317 16.5846 30.7317 17.7813Z" fill="white"/>
<path d="M16.8566 22.6328C17.1154 22.4387 17.0831 22.0506 16.8243 21.8888C16.1452 21.4685 15.3366 21.242 14.4956 21.242C12.1346 21.2097 10.1618 23.0533 10 25.382C10 25.5761 10.1293 25.7054 10.2911 25.7054H14.1722C14.3663 25.7054 14.4956 25.6085 14.5926 25.4467C15.1101 24.347 15.8864 23.3768 16.8566 22.6328L16.8566 22.6328Z" fill="white"/>
<path d="M28.468 21.2094C27.4978 21.2094 26.5922 21.5328 25.8482 22.0503C25.5895 22.2121 25.5895 22.6002 25.8159 22.7618C26.6892 23.4732 27.4331 24.379 27.9182 25.4462C27.9828 25.608 28.1446 25.705 28.3385 25.705H32.6724C32.8665 25.705 32.9958 25.5432 32.9635 25.3816C32.8019 23.053 30.8289 21.2095 28.4679 21.2095L28.468 21.2094Z" fill="white"/>
<path d="M21.2548 22.4386C18.0852 22.4386 15.4655 24.8966 15.2389 28.0337C15.2065 28.2601 15.4007 28.4541 15.6592 28.4541H26.8823C27.1087 28.4541 27.3027 28.26 27.3027 28.0337C27.0441 24.9289 24.4243 22.4386 21.2547 22.4386H21.2548Z" fill="white"/>
</svg>
