<svg width="43" height="43" viewBox="0 0 43 43" fill="none" xmlns="http://www.w3.org/2000/svg">
<path d="M18 3.17543C20.1658 1.925 22.8342 1.925 25 3.17543L35.6195 9.30662C37.7854 10.5571 39.1195 12.8679 39.1195 15.3688V27.6312C39.1195 30.1321 37.7854 32.4429 35.6195 33.6934L25 39.8246C22.8342 41.075 20.1658 41.075 18 39.8246L7.38045 33.6934C5.21464 32.4429 3.88045 30.1321 3.88045 27.6312V15.3688C3.88045 12.8679 5.21465 10.5571 7.38045 9.30662L18 3.17543Z" fill="#1C5BFF" stroke="#084BF5" stroke-width="2"/>
<path d="M20.9998 12C20.2896 12 19.714 12.5756 19.714 13.2858C19.714 13.9959 20.2896 14.5716 20.9998 14.5716C21.7099 14.5716 22.2856 13.9959 22.2856 13.2858C22.2856 12.5756 21.7099 12 20.9998 12ZM20.9998 16.0714C19.2191 16.0714 17.7855 17.3138 17.7855 18.8571V19.9285H24.214V18.8571C24.214 17.3138 22.7804 16.0714 20.9998 16.0714ZM20.9528 21.2077C20.7321 21.2319 20.5664 21.4208 20.5712 21.6429V23.5447L18.636 24.7031C18.5271 24.7555 18.4454 24.8515 18.4111 24.9672C18.3765 25.083 18.3927 25.208 18.4552 25.3113C18.5178 25.4147 18.6211 25.4867 18.7396 25.5099C18.8581 25.5331 18.981 25.5051 19.0779 25.4331L20.9998 24.2812L22.9217 25.4331C23.0186 25.5051 23.1414 25.5331 23.26 25.5099C23.3785 25.4867 23.4818 25.4147 23.5444 25.3113C23.6069 25.208 23.623 25.083 23.5885 24.9672C23.5541 24.8515 23.4725 24.7555 23.3636 24.7031L21.4284 23.5447V21.6429C21.431 21.5195 21.3804 21.401 21.2893 21.3175C21.1982 21.2341 21.0756 21.1941 20.9529 21.2077H20.9528ZM15.2143 22.0715C14.5041 22.0715 13.9285 22.6471 13.9285 23.3573C13.9285 24.0674 14.5041 24.643 15.2143 24.643C15.9244 24.643 16.5 24.0674 16.5 23.3573C16.5 22.6471 15.9244 22.0715 15.2143 22.0715ZM26.7856 22.0715C26.0754 22.0715 25.4998 22.6471 25.4998 23.3573C25.4998 24.0674 26.0754 24.643 26.7856 24.643C27.4957 24.643 28.0713 24.0674 28.0713 23.3573C28.0713 22.6471 27.4957 22.0715 26.7856 22.0715ZM15.2143 26.1429C13.4336 26.1429 12 27.3853 12 28.9286V30H18.4285V28.9286C18.4285 27.3853 16.9949 26.1429 15.2143 26.1429ZM26.7856 26.1429C25.0049 26.1429 23.5713 27.3853 23.5713 28.9286V30H29.9998V28.9286C29.9998 27.3853 28.5662 26.1429 26.7856 26.1429Z" fill="white"/>
</svg>
