<svg width="83" height="83" viewBox="0 0 83 83" fill="none" xmlns="http://www.w3.org/2000/svg">
<g opacity="0.03">
<path d="M41.499 0C38.2243 0 35.5701 2.65424 35.5701 5.92886C35.5701 9.20348 38.2243 11.8577 41.499 11.8577C44.7736 11.8577 47.4278 9.20348 47.4278 5.92886C47.4278 2.65424 44.7736 0 41.499 0ZM41.499 18.7736C33.2882 18.7736 26.6777 24.5026 26.6777 31.6189V36.5593H56.3202V31.6189C56.3202 24.5026 49.7098 18.7736 41.499 18.7736ZM41.2825 42.4576C40.2645 42.5693 39.5008 43.4405 39.5229 44.4647V53.2338L30.5995 58.5753C30.097 58.8172 29.7207 59.2597 29.5622 59.7931C29.4029 60.3273 29.4774 60.9035 29.7655 61.3797C30.0543 61.8567 30.5305 62.1889 31.0771 62.2957C31.6236 62.4026 32.1902 62.2737 32.6368 61.9415L41.499 56.6301L50.3613 61.9415C50.8079 62.2737 51.3745 62.4026 51.921 62.2957C52.4676 62.1889 52.9438 61.8567 53.2326 61.3797C53.5207 60.9035 53.5952 60.3273 53.4359 59.7931C53.2774 59.2597 52.9011 58.8172 52.3986 58.5753L43.4752 53.2338V44.4647C43.4876 43.8954 43.2539 43.3488 42.8342 42.9642C42.4138 42.5796 41.8486 42.3949 41.2827 42.4576H41.2825ZM14.8213 46.4407C11.5467 46.4407 8.89241 49.0949 8.89241 52.3695C8.89241 55.6442 11.5467 58.2984 14.8213 58.2984C18.0959 58.2984 20.7501 55.6442 20.7501 52.3695C20.7501 49.0949 18.0959 46.4407 14.8213 46.4407ZM68.1778 46.4407C64.9032 46.4407 62.249 49.0949 62.249 52.3695C62.249 55.6442 64.9032 58.2984 68.1778 58.2984C71.4525 58.2984 74.1067 55.6442 74.1067 52.3695C74.1067 49.0949 71.4525 46.4407 68.1778 46.4407ZM14.8213 65.2143C6.61047 65.2143 0 70.9432 0 78.0596V83H29.6425V78.0596C29.6425 70.9432 23.0321 65.2143 14.8213 65.2143ZM68.1778 65.2143C59.967 65.2143 53.3566 70.9432 53.3566 78.0596V83H82.9991V78.0596C82.9991 70.9432 76.3887 65.2143 68.1778 65.2143Z" fill="#1C5BFF"/>
</g>
</svg>
