<svg width="43" height="43" viewBox="0 0 43 43" fill="none" xmlns="http://www.w3.org/2000/svg">
<path d="M18 3.17543C20.1658 1.925 22.8342 1.925 25 3.17543L35.6195 9.30662C37.7854 10.5571 39.1195 12.8679 39.1195 15.3688V27.6312C39.1195 30.1321 37.7854 32.4429 35.6195 33.6934L25 39.8246C22.8342 41.075 20.1658 41.075 18 39.8246L7.38045 33.6934C5.21464 32.4429 3.88045 30.1321 3.88045 27.6312V15.3688C3.88045 12.8679 5.21465 10.5571 7.38045 9.30662L18 3.17543Z" fill="#00398D" stroke="#0C3470" stroke-width="2"/>
<path fill-rule="evenodd" clip-rule="evenodd" d="M27.2601 25.2336H20.4771C20.3076 25.9118 19.7989 26.4205 19.2053 26.5901C18.2726 26.9292 17.2552 26.5901 16.7465 25.8269C16.5769 25.5725 16.4921 25.4029 16.4074 25.2334C14.0335 25.2334 13.9486 23.5378 14.966 22.69H13.779C13.1008 22.69 13.0159 22.0117 13.355 21.6726C13.779 21.2485 17.4248 21.7574 17.8485 21.4181C18.2726 21.1637 18.1877 20.4854 17.5941 20.4854C16.6614 20.4854 12.2525 20.5703 11.9137 20.4005C11.4897 20.231 11.405 19.6374 11.9137 19.3831C12.1682 19.2983 14.9659 19.3831 15.4746 19.3831C15.729 19.3831 16.3224 19.3831 16.3224 18.7896C16.3224 18.196 15.3897 18.2809 15.0505 18.2809C14.5418 18.2809 10.9808 18.3658 10.7265 18.2809C10.0483 18.1113 10.133 17.1786 10.8961 17.1786H15.1354C15.1354 16.4155 15.8985 15.9917 16.7463 15.9917H26.1575C27.3444 15.9917 27.514 16.5852 28.0227 17.2635C28.1923 17.518 29.1249 18.8745 29.1249 19.044C30.3119 19.044 32.3466 19.044 32.3466 20.5701V22.6049C33.364 22.6049 33.2793 24.9788 32.4315 25.2332C32.1771 25.3181 31.6684 25.2332 31.3293 25.2332C30.3966 27.1833 28.1076 27.3529 27.3444 25.5723C27.3444 25.4028 27.3444 25.3179 27.2595 25.2332L27.2601 25.2336ZM30.3123 24.5554C30.3123 23.1989 28.2775 23.1989 28.2775 24.5554C28.2775 25.064 28.7862 25.5727 29.2949 25.5727C29.8885 25.5727 30.3123 25.064 30.3123 24.5554H30.3123ZM19.4602 24.5554C19.4602 24.0467 19.0362 23.538 18.5275 23.538C17.0861 23.538 17.0861 25.5727 18.5275 25.5727C19.0362 25.5727 19.4602 25.064 19.4602 24.5553V24.5554ZM24.7171 19.1291L28.3628 19.2139L26.8367 16.8401H24.717V19.1292L24.7171 19.1291Z" fill="white"/>
</svg>
