<svg width="176" height="84" viewBox="0 0 176 84" fill="none" xmlns="http://www.w3.org/2000/svg">
<g opacity="0.02">
<path fill-rule="evenodd" clip-rule="evenodd" d="M130.665 71.9087H78.6163C77.3152 77.1131 73.4118 81.0166 68.8569 82.3176C61.6999 84.9199 53.893 82.3176 49.9895 76.4617C48.6884 74.5092 48.0371 73.2081 47.3873 71.9071C29.1714 71.9071 28.5199 58.8957 36.3268 52.3902H27.2189C22.0144 52.3902 21.3629 47.1857 23.9653 44.5833C27.2189 41.3297 55.1941 45.2346 58.4461 42.6308C61.6997 40.6784 61.0484 35.4739 56.4936 35.4739C49.3366 35.4739 15.5054 36.1252 12.9057 34.8225C9.65207 33.5214 9.00222 28.9666 12.9057 27.0156C14.8581 26.3643 36.326 27.0156 40.2295 27.0156C42.1819 27.0156 46.735 27.0156 46.735 22.4611C46.735 17.9065 39.578 18.5576 36.9756 18.5576C33.0721 18.5576 5.74676 19.209 3.7958 18.5576C-1.40868 17.2565 -0.75874 10.0996 5.09695 10.0996H37.6268C37.6268 4.24368 43.4827 0.991699 49.9882 0.991699H122.204C131.312 0.991699 132.613 5.54624 136.516 10.7511C137.818 12.7036 144.975 23.1126 144.975 24.4136C154.082 24.4136 169.696 24.4136 169.696 36.124V51.7374C177.503 51.7374 176.853 69.9533 170.347 71.9058C168.395 72.5571 164.491 71.9058 161.889 71.9058C154.732 86.8697 137.168 88.1707 131.312 74.508C131.312 73.2069 131.312 72.5556 130.661 71.9058L130.665 71.9087ZM154.085 66.7042C154.085 56.2952 138.472 56.2952 138.472 66.7042C138.472 70.6076 142.375 74.5111 146.279 74.5111C150.833 74.5111 154.086 70.6076 154.086 66.7042H154.085ZM70.8129 66.7042C70.8129 62.8007 67.5593 58.8973 63.6559 58.8973C52.5955 58.8973 52.5955 74.5107 63.6559 74.5107C67.5593 74.5107 70.8129 70.6073 70.8129 66.7038V66.7042ZM111.151 25.066L139.126 25.7174L127.416 7.5015H111.151V25.0674L111.151 25.066Z" fill="#00398D"/>
</g>
</svg>
