<svg width="250" height="218" viewBox="0 0 250 218" fill="none" xmlns="http://www.w3.org/2000/svg">
<path d="M241.23 142.588C236.522 142.327 226.579 147.82 223.701 149.129C214.021 154.1 200.677 162.21 191.782 168.49C191.259 169.014 190.474 169.536 189.689 169.798C185.765 172.415 181.579 174.246 176.869 175.294C151.23 181.049 113.816 181.573 113.816 181.573H111.723C110.153 181.573 108.584 180.527 108.321 178.956C108.06 177.124 109.367 175.554 111.199 175.293L166.664 169.798C172.681 169.013 177.653 163.257 176.868 156.456C176.083 149.654 170.327 144.943 164.048 145.467L114.6 144.943C111.198 144.943 105.966 144.159 102.564 143.111C70.6451 133.431 52.8543 142.587 43.174 146.774C41.0807 143.111 36.8944 140.757 32.4467 141.018L12.0452 142.587C4.98076 143.111 -0.251366 149.128 0.00932916 156.193L3.41107 205.379C3.93484 212.443 9.95181 217.676 17.0163 217.415L38.2078 215.845C42.6553 215.584 46.3178 212.706 47.8876 208.781L141.289 212.967C151.754 214.013 161.435 212.706 170.591 207.735L173.208 206.166L243.848 163.258C247.25 161.165 249.865 157.503 249.865 153.316C250.65 148.606 248.035 143.113 241.232 142.589L241.23 142.588ZM24.8627 205.641C20.939 205.641 17.5371 202.502 17.5371 198.315C17.5371 194.391 20.6761 190.989 24.8627 190.989C28.7864 190.989 32.1883 194.128 32.1883 198.315C32.1883 202.5 29.0494 205.641 24.8627 205.641ZM187.596 150.175C194.922 145.989 209.573 138.663 217.683 135.261C221.606 133.692 225.532 133.692 229.195 136.307C226.317 137.353 223.7 138.661 221.085 139.97C212.712 144.417 198.061 152.528 190.735 157.76C189.951 158.284 189.166 158.806 188.642 159.329V155.143C188.381 153.311 188.118 151.741 187.596 150.171V150.175L187.596 150.175ZM177.915 137.879C182.886 135.262 193.874 131.599 198.582 129.506C202.506 127.936 206.432 127.936 210.094 130.551C204.339 133.168 193.35 137.353 188.118 140.231L184.455 142.324C184.194 142.585 183.932 142.848 183.41 143.109C181.84 141.02 180.008 139.187 177.914 137.879L177.915 137.879ZM143.118 0C107.536 0 79.0186 28.7802 79.0186 64.0992C79.0186 99.6808 107.799 128.198 143.118 128.198C178.699 128.198 207.217 99.4183 207.217 64.0992C207.48 28.5176 178.7 0 143.118 0ZM165.618 96.5413C163.786 97.326 161.694 98.1107 159.601 98.6345C151.752 100.728 143.902 100.989 136.055 98.3736C126.637 95.2346 120.357 88.9549 116.694 80.06C115.909 78.2277 115.386 76.3973 114.862 74.5648H107.536C106.228 74.5648 105.182 73.5191 105.182 72.2106V67.2391C105.182 65.9306 106.228 64.8849 107.536 64.8849H113.553V60.9612H107.536C106.228 60.9612 105.182 59.9155 105.182 58.607V53.6355C105.182 52.327 106.228 51.2813 107.536 51.2813H115.386L115.647 50.4965C117.74 43.9558 121.402 38.2 126.896 34.0134C131.343 30.6117 136.314 28.7813 141.81 27.9964C149.659 26.6879 156.984 27.7354 164.31 30.6135C164.833 30.8744 165.355 31.1372 165.618 31.1372C167.45 32.1829 167.711 33.4915 166.927 35.3237C166.142 37.417 165.357 39.2474 164.31 41.0796C163.525 42.6491 162.477 43.1728 160.647 42.9119C158.293 42.3881 155.676 41.6033 153.321 41.0796C148.089 40.0338 142.857 40.0338 137.886 41.8643C133.438 43.6966 130.821 46.8357 128.991 51.0223V51.2832H144.165C145.474 51.2832 146.519 52.329 146.519 53.6375V58.8677C146.519 60.1763 145.474 61.222 144.165 61.222H126.897V65.1457H144.165C145.474 65.1457 146.519 66.1914 146.519 67.4999V72.4714C146.519 73.7799 145.474 74.8256 144.165 74.8256H128.467C130.299 80.3207 133.438 84.5054 139.194 86.3378C143.902 87.9073 148.612 87.6463 153.321 86.8615C155.675 86.3378 158.029 85.553 160.646 85.0292C162.479 84.5055 163.524 85.0292 164.309 86.8615C165.094 88.6938 166.141 90.7852 166.926 92.8785C167.974 94.1871 167.45 95.7566 165.618 96.5413H165.618Z" fill="#19AD90" fill-opacity="0.03"/>
</svg>
