<svg width="121" height="121" viewBox="0 0 121 121" fill="none" xmlns="http://www.w3.org/2000/svg">
<path d="M50.5 5.7735C56.688 2.20085 64.312 2.20085 70.5 5.7735L102.895 24.4765C109.083 28.0492 112.895 34.6517 112.895 41.797V79.203C112.895 86.3483 109.083 92.9508 102.895 96.5235L70.5 115.226C64.312 118.799 56.688 118.799 50.5 115.226L18.1055 96.5235C11.9174 92.9508 8.10546 86.3483 8.10546 79.203V41.797C8.10546 34.6517 11.9174 28.0492 18.1055 24.4765L50.5 5.7735Z" fill="#19AD90"/>
<path d="M82.7332 67.0323C81.8406 66.9828 79.9557 68.0242 79.41 68.2723C77.5749 69.2148 75.0451 70.7524 73.3587 71.9429C73.2594 72.0422 73.1107 72.1411 72.9619 72.1909C72.218 72.6871 71.4244 73.0341 70.5314 73.2327C65.6706 74.3239 58.5776 74.4232 58.5776 74.4232H58.1808C57.8832 74.4232 57.5857 74.225 57.5359 73.9271C57.4864 73.5797 57.7341 73.2822 58.0815 73.2327L68.5968 72.1909C69.7375 72.0421 70.68 70.9509 70.5312 69.6614C70.3824 68.3718 69.2912 67.4788 68.1007 67.5781L58.7262 67.4788C58.0813 67.4788 57.0894 67.3301 56.4444 67.1315C50.3931 65.2963 47.0203 67.0322 45.1851 67.8259C44.7882 67.1315 43.9946 66.6851 43.1514 66.7346L39.2836 67.0322C37.9443 67.1315 36.9523 68.2722 37.0018 69.6115L37.6467 78.9364C37.746 80.2757 38.8867 81.2677 40.226 81.2182L44.2436 80.9207C45.0867 80.8712 45.7811 80.3256 46.0787 79.5814L63.7861 80.3751C65.77 80.5733 67.6054 80.3256 69.3413 79.3831L69.8374 79.0856L83.2296 70.9511C83.8745 70.5542 84.3703 69.8599 84.3703 69.0662C84.5191 68.1732 84.0233 67.1318 82.7335 67.0325L82.7332 67.0323ZM41.7136 78.9861C40.9697 78.9861 40.3247 78.391 40.3247 77.5972C40.3247 76.8534 40.9198 76.2084 41.7136 76.2084C42.4574 76.2084 43.1024 76.8035 43.1024 77.5972C43.1024 78.3906 42.5073 78.9861 41.7136 78.9861ZM72.5651 68.4707C73.9539 67.677 76.7315 66.2882 78.269 65.6433C79.0129 65.3458 79.7571 65.3458 80.4515 65.8416C79.9059 66.0398 79.4097 66.2879 78.914 66.536C77.3266 67.3791 74.5491 68.9167 73.1602 69.9086C73.0115 70.0079 72.8627 70.1069 72.7634 70.2062V69.4125C72.7139 69.0651 72.6641 68.7676 72.5651 68.47V68.4707L72.5651 68.4707ZM70.7296 66.1395C71.6721 65.6434 73.7553 64.949 74.6479 64.5521C75.3918 64.2546 76.136 64.2546 76.8304 64.7504C75.7392 65.2465 73.656 66.0399 72.6641 66.5855L71.9697 66.9823C71.9202 67.0318 71.8704 67.0816 71.7714 67.1311C71.4739 66.735 71.1265 66.3876 70.7296 66.1396L70.7296 66.1395ZM64.1328 40C57.3871 40 51.9806 45.4562 51.9806 52.1521C51.9806 58.8978 57.4369 64.3043 64.1328 64.3043C70.8784 64.3043 76.2849 58.848 76.2849 52.1521C76.3347 45.4065 70.8785 40 64.1328 40ZM68.3984 58.3026C68.051 58.4514 67.6545 58.6002 67.2577 58.6995C65.7696 59.0963 64.2815 59.1458 62.7938 58.65C61.0082 58.0549 59.8176 56.8644 59.1233 55.178C58.9745 54.8307 58.8752 54.4836 58.7759 54.1362H57.3871C57.139 54.1362 56.9408 53.938 56.9408 53.6899V52.7474C56.9408 52.4993 57.139 52.3011 57.3871 52.3011H58.5278V51.5572H57.3871C57.139 51.5572 56.9408 51.359 56.9408 51.1109V50.1684C56.9408 49.9203 57.139 49.7221 57.3871 49.7221H58.8752L58.9247 49.5733C59.3215 48.3333 60.0159 47.2421 61.0573 46.4484C61.9005 45.8035 62.8429 45.4565 63.8847 45.3077C65.3728 45.0596 66.7616 45.2582 68.1504 45.8038C68.2497 45.8533 68.3486 45.9031 68.3985 45.9031C68.7458 46.1014 68.7953 46.3494 68.6465 46.6968C68.4978 47.0936 68.349 47.4407 68.1504 47.788C68.0016 48.0856 67.803 48.1849 67.456 48.1354C67.0097 48.0361 66.5135 47.8873 66.0672 47.788C65.0752 47.5898 64.0833 47.5897 63.1408 47.9368C62.2977 48.2841 61.8015 48.8793 61.4545 49.673V49.7225H64.3313C64.5794 49.7225 64.7777 49.9207 64.7777 50.1688V51.1603C64.7777 51.4084 64.5794 51.6067 64.3313 51.6067H61.0576V52.3505H64.3313C64.5794 52.3505 64.7777 52.5488 64.7777 52.7969V53.7394C64.7777 53.9874 64.5794 54.1857 64.3313 54.1857H61.3551C61.7025 55.2275 62.2976 56.0208 63.3888 56.3682C64.2815 56.6658 65.1744 56.6163 66.0671 56.4675C66.5134 56.3682 66.9597 56.2194 67.4559 56.1201C67.8033 56.0208 68.0015 56.1201 68.1503 56.4675C68.2991 56.8149 68.4977 57.2114 68.6464 57.6082C68.845 57.8563 68.7457 58.1539 68.3984 58.3026H68.3984Z" fill="white"/>
</svg>
