<svg width="22" height="22" viewBox="0 0 22 22" fill="none" xmlns="http://www.w3.org/2000/svg">
<path d="M11 0C4.92708 0 0 4.92708 0 11C0 17.0729 4.92708 22 11 22C17.0729 22 22 17.0729 22 11C22 4.92708 17.0729 0 11 0ZM16.6604 8.34167L10.1979 14.8271C9.9917 15.0333 9.69375 15.1708 9.39575 15.1708C9.09775 15.1708 8.79996 15.0562 8.59359 14.8271L5.33958 11.5729C4.88129 11.1146 4.88129 10.4042 5.33958 9.94575C5.79788 9.48746 6.50829 9.48746 6.96675 9.94575L9.39587 12.3749L15.0563 6.71446C15.5146 6.25617 16.225 6.25617 16.6835 6.71446C17.1187 7.17292 17.1187 7.88329 16.6604 8.34163L16.6604 8.34167Z" fill="#00B739"/>
</svg>
