<svg xmlns="http://www.w3.org/2000/svg" width="27" height="27" fill="none" viewBox="0 0 27 27">
  <path fill="#FF2323" d="M7.043 9.031h5.87c.81 0 1.467-.668 1.467-1.479 0-.81-.657-1.479-1.467-1.479h-5.87c-.81 0-1.467.669-1.467 1.48 0 .81.657 1.478 1.467 1.478Zm0 6.452H19.37c.811 0 1.468-.669 1.468-1.48 0-.81-.657-1.478-1.468-1.478H7.043c-.81 0-1.467.668-1.467 1.479 0 .81.657 1.479 1.467 1.479Zm12.913 2.927H7.043a1.464 1.464 0 1 0 0 2.926h12.913a1.465 1.465 0 1 0 0-2.927Z"/>
  <path fill="#FF2323" d="M19.644 0H4.76a3.282 3.282 0 0 0-3.28 3.287v20.415A3.29 3.29 0 0 0 4.76 27h17.48a3.29 3.29 0 0 0 3.281-3.298V6.022L19.644 0Zm2.596 24.64H4.76a.947.947 0 0 1-.953-.938V3.287c0-.52.432-.959.953-.959h13.743v2.643c0 1.162.942 2.107 2.104 2.119l2.586.026v16.586a.947.947 0 0 1-.953.938Z"/>
</svg>
