<svg width="22" height="21" viewBox="0 0 22 21" fill="none" xmlns="http://www.w3.org/2000/svg">
<path d="M21.6602 17.0859C21.5434 16.872 21.4265 16.6604 21.3097 16.4487C21.1091 16.0827 20.9084 15.7167 20.7078 15.3507C20.4388 14.8612 20.172 14.374 19.903 13.8845C19.5877 13.3091 19.2703 12.7314 18.9549 12.156C18.611 11.5298 18.2671 10.9037 17.9231 10.2775C17.5659 9.62929 17.2109 8.97887 16.8538 8.33066C16.5076 7.70008 16.1593 7.06732 15.8131 6.43673C15.4912 5.85025 15.1693 5.26377 14.8474 4.67729C14.5718 4.17459 14.2962 3.6741 14.0206 3.1714C13.8068 2.78336 13.5951 2.39531 13.3813 2.00727C13.2512 1.76915 13.1211 1.53106 12.9888 1.29291C12.8411 1.02613 12.6845 0.765975 12.453 0.558709C12.0628 0.212558 11.5689 0.0163352 11.0486 0.000894065C10.5261 -0.0145394 10.03 0.170661 9.6243 0.49255C9.35973 0.702005 9.17893 0.982029 9.01799 1.27525C8.89011 1.50675 8.76443 1.73824 8.63656 1.96978C8.4271 2.35341 8.21546 2.73486 8.00597 3.11847C7.73258 3.61673 7.45921 4.11282 7.18578 4.61109C6.86609 5.19535 6.54419 5.77744 6.22448 6.3617L5.18602 8.2512C4.82884 8.89941 4.47387 9.54983 4.11671 10.198C3.77276 10.8264 3.42662 11.4548 3.08268 12.0809C2.76519 12.6608 2.4477 13.2384 2.12799 13.8183C1.86121 14.3122 1.59223 14.8061 1.32102 15.2977C1.11818 15.6681 0.913145 16.0407 0.710314 16.4111C0.589051 16.6316 0.469993 16.8499 0.348726 17.0704C0.141476 17.4496 -0.00845136 17.8487 0.000369829 18.2896C0.0113939 18.8298 0.227463 19.3457 0.591244 19.7426C0.968265 20.1504 1.49743 20.3819 2.04859 20.4172C2.19632 20.426 2.34624 20.4194 2.49397 20.4194H19.8324H19.8544C20.4056 20.4084 20.9348 20.1989 21.3338 19.8153C21.7241 19.4405 21.9489 18.9312 21.9931 18.3954C22.0349 17.928 21.8828 17.4892 21.6601 17.0858L21.6602 17.0859ZM11.5534 17.6415H11.5247H10.4444C10.2063 17.6415 10.0078 17.4364 10.0078 17.1983V16.0871C10.0078 15.849 10.2063 15.6352 10.4444 15.6352H11.5556C11.7937 15.6352 11.9921 15.8468 11.9921 16.0871V17.1983C12.0142 17.4364 11.7849 17.6415 11.5533 17.6415H11.5534ZM12.3339 7.01454C12.3206 7.28132 12.3052 7.54809 12.292 7.8149C12.2324 8.97464 12.1707 10.1343 12.1112 11.2941C12.0737 12.0217 12.0362 12.7492 11.9965 13.4768V13.4945C11.9965 13.5275 11.9943 13.5584 11.9877 13.5915C11.9855 13.6003 11.9833 13.6113 11.9789 13.6201C11.9789 13.6245 11.9767 13.6267 11.9745 13.6312C11.9679 13.6444 11.959 13.6576 11.9546 13.6686C11.9502 13.6775 11.948 13.6885 11.948 13.6973C11.9436 13.6995 11.9414 13.7017 11.937 13.7039C11.937 13.7039 11.9326 13.7061 11.9304 13.7061C11.9282 13.7083 11.9238 13.7083 11.9238 13.7105V13.7127V13.7149V13.7194C11.9216 13.7238 11.9216 13.7282 11.9172 13.7326C11.9149 13.7348 11.9127 13.7392 11.9105 13.7414C11.8995 13.7546 11.8863 13.7679 11.8753 13.7811C11.8554 13.8009 11.8334 13.8208 11.8091 13.8362C11.8025 13.8406 11.7981 13.845 11.7915 13.8472C11.7871 13.8494 11.7827 13.8538 11.7783 13.856C11.7738 13.8583 11.7694 13.8605 11.765 13.8627C11.7628 13.8649 11.7584 13.8671 11.754 13.8693C11.7474 13.8715 11.7408 13.8759 11.7342 13.8781C11.7297 13.8803 11.7275 13.8803 11.7253 13.8825C11.7165 13.8869 11.7055 13.8913 11.6967 13.8935C11.6923 13.8957 11.6856 13.8979 11.6812 13.8979C11.679 13.8979 11.6768 13.9001 11.6768 13.9001C11.6746 13.9023 11.6702 13.9023 11.6658 13.9023C11.6636 13.9023 11.6614 13.9023 11.6614 13.9046C11.6592 13.9046 11.6548 13.9068 11.6526 13.9068C11.6482 13.909 11.6416 13.909 11.6371 13.9112H11.6327C11.6195 13.9134 11.6085 13.9156 11.5953 13.9178C11.582 13.92 11.5666 13.92 11.5534 13.92H11.5247H10.4421C10.193 13.92 10.0144 13.7171 10.0011 13.479C9.98792 13.2122 9.97249 12.9455 9.95926 12.6787C9.89752 11.5189 9.83799 10.3592 9.77846 9.19949C9.74098 8.4719 9.70129 7.74431 9.66381 7.01673C9.65058 6.77861 9.87547 6.57575 10.1048 6.57575H11.8929C12.012 6.57575 12.1288 6.63087 12.2126 6.71465C12.292 6.79182 12.3405 6.89985 12.3339 7.0145L12.3339 7.01454Z" fill="#FF0006"/>
</svg>
