<svg width="212" height="243" viewBox="0 0 212 243" fill="none" xmlns="http://www.w3.org/2000/svg">
<path d="M206.912 190.401H164.438C161.654 190.401 159.375 192.677 159.375 195.463V237.936C159.375 240.011 160.591 241.835 162.513 242.645C163.121 242.898 163.778 242.999 164.438 242.999C165.754 242.999 167.019 242.492 168.031 241.532L210.506 199.057C211.973 197.59 212.379 195.412 211.618 193.54C210.809 191.615 208.987 190.401 206.912 190.401L206.912 190.401Z" fill="#F77803" fill-opacity="0.03"/>
<path d="M93.0576 83.6351L137.051 133.502C138.013 134.565 139.379 135.222 140.797 135.222H140.848C142.266 135.222 143.632 134.614 144.594 133.551C145.101 132.995 145.606 132.336 145.96 131.932C152.035 124.794 156.743 116.896 159.984 108.391C168.387 86.0674 166.413 61.3119 154.567 40.506C153.807 39.1398 152.948 37.7718 152.086 36.4056C150.164 33.4694 148.493 31.1411 146.67 29.0145C145.759 27.8998 144.442 27.2939 142.973 27.2425C141.455 27.1415 140.138 27.7493 139.176 28.7611L93.2087 76.8036C91.3889 78.7281 91.3375 81.6643 93.0581 83.6382L93.0576 83.6351Z" fill="#F77803" fill-opacity="0.03"/>
<path d="M206.912 37.9712H164.604C176.74 60.8163 178.611 87.6355 169.455 111.958C165.801 121.558 160.495 130.475 153.669 138.493L153.298 138.938C152.922 139.397 152.498 139.907 152.077 140.368C149.591 143.117 146.14 144.773 142.466 145.176C141.497 148.99 139.367 152.168 136.295 154.221C121.206 164.677 103.44 170.253 85.0554 170.253C74.6365 170.253 64.3407 168.434 54.4487 164.845C54.3275 164.812 54.1182 164.721 53.9731 164.675V237.937C53.9731 240.721 56.2501 243 59.0359 243H150.148C149.582 241.401 149.25 239.702 149.25 237.939V195.465C149.25 187.09 156.062 180.277 164.438 180.277H206.912C208.675 180.277 210.373 180.609 211.973 181.175V43.036C211.973 40.2504 209.696 37.9732 206.912 37.9732L206.912 37.9712Z" fill="#F77803" fill-opacity="0.03"/>
<path d="M47.2642 98.8709C51.6805 97.6277 54.4844 94.8769 54.4844 92.3375C54.4844 89.7981 51.6803 87.0451 47.2642 85.8041V98.8709Z" fill="#F77803" fill-opacity="0.03"/>
<path d="M29.9229 67.7888C29.9229 70.3284 32.7269 73.0811 37.1431 74.3222V61.2549C32.7249 62.4962 29.9229 65.247 29.9229 67.7883V67.7888Z" fill="#F77803" fill-opacity="0.03"/>
<path d="M125.607 145.799C126.823 144.989 127.581 143.673 127.783 142.255C127.936 140.837 127.48 139.37 126.568 138.307L75.1359 79.9367L128.848 23.7429C129.81 22.6797 130.315 21.2622 130.214 19.8445C130.113 18.4269 129.404 17.0607 128.24 16.1996C122.114 11.5924 115.432 7.89788 108.344 5.21511C99.2323 1.77212 89.715 0 80.0454 0C46.9873 0 16.9179 20.8068 5.1705 51.7374C-10.4212 92.9449 10.435 139.267 51.7953 154.963C51.9477 155.064 52.2011 155.115 52.4031 155.165C61.3126 158.456 70.5765 160.127 79.9928 160.127C96.2953 160.125 112.089 155.165 125.605 145.799L125.607 145.799ZM64.6046 92.3364C64.6046 100.702 57.2981 107.476 47.2594 109.211V109.483C47.2594 112.28 44.9935 114.546 42.1966 114.546C39.3998 114.546 37.1338 112.28 37.1338 109.483L37.1357 109.211C27.097 107.474 19.7905 100.702 19.7905 92.3364C19.7905 89.5397 22.0565 87.2736 24.8533 87.2736C27.6502 87.2736 29.9161 89.5395 29.9161 92.3364C29.9161 94.8759 32.7201 97.6286 37.1361 98.8696V84.6604C27.0975 82.9233 19.791 76.1509 19.791 67.7853C19.791 59.4197 27.0975 52.6472 37.1361 50.9117V50.638C37.1361 47.8414 39.4021 45.5752 42.1989 45.5752C44.9956 45.5752 47.2617 47.8412 47.2617 50.638V50.9117C57.3004 52.6469 64.6069 59.4192 64.6069 67.7853C64.6069 70.5819 62.3409 72.8481 59.5441 72.8481C56.7475 72.8481 54.4813 70.5822 54.4813 67.7853C54.4813 65.2458 51.6773 62.495 47.2613 61.2535V75.4608C57.2985 77.1961 64.605 83.9703 64.605 92.3359L64.6046 92.3364Z" fill="#F77803" fill-opacity="0.03"/>
</svg>
