<svg width="121" height="121" viewBox="0 0 121 121" fill="none" xmlns="http://www.w3.org/2000/svg">
<path d="M50.5 5.7735C56.688 2.20085 64.312 2.20085 70.5 5.7735L102.895 24.4765C109.083 28.0492 112.895 34.6517 112.895 41.797V79.203C112.895 86.3483 109.083 92.9508 102.895 96.5235L70.5 115.226C64.312 118.799 56.688 118.799 50.5 115.226L18.1055 96.5235C11.9174 92.9508 8.10546 86.3483 8.10546 79.203V41.797C8.10546 34.6517 11.9174 28.0492 18.1055 24.4765L50.5 5.7735Z" fill="#FFA426"/>
<path d="M79.5044 73.4318H71.6003C71.0823 73.4318 70.6582 73.8555 70.6582 74.3739V82.2777C70.6582 82.6639 70.8844 83.0032 71.2422 83.1539C71.3553 83.2011 71.4776 83.2199 71.6003 83.2199C71.8453 83.2199 72.0808 83.1255 72.269 82.9468L80.1731 75.0427C80.4461 74.7697 80.5217 74.3644 80.3802 74.0159C80.2295 73.6578 79.8905 73.4319 79.5044 73.4319L79.5044 73.4318Z" fill="white"/>
<path d="M58.3171 53.5637L66.5039 62.8433C66.6829 63.0412 66.9371 63.1635 67.201 63.1635H67.2105C67.4743 63.1635 67.7286 63.0504 67.9076 62.8526C68.0019 62.749 68.0959 62.6264 68.1618 62.5512C69.2922 61.2229 70.1684 59.7533 70.7715 58.1705C72.3352 54.0163 71.9678 49.4095 69.7635 45.5377C69.622 45.2835 69.4621 45.0289 69.3018 44.7747C68.9441 44.2283 68.6331 43.795 68.2938 43.3993C68.1243 43.1919 67.8793 43.0791 67.606 43.0695C67.3234 43.0507 67.0784 43.1638 66.8993 43.3521L58.3453 52.2924C58.0066 52.6505 57.997 53.1969 58.3172 53.5642L58.3171 53.5637Z" fill="white"/>
<path d="M79.5044 45.066H71.6313C73.8897 49.3173 74.2379 54.3081 72.5341 58.8342C71.8541 60.6207 70.8666 62.2801 69.5964 63.7723L69.5274 63.855C69.4573 63.9404 69.3784 64.0354 69.3002 64.1212C68.8375 64.6327 68.1954 64.9409 67.5117 65.0158C67.3312 65.7255 66.9349 66.317 66.3632 66.699C63.5553 68.6447 60.2492 69.6825 56.8281 69.6825C54.8892 69.6825 52.9732 69.3439 51.1324 68.6761C51.1099 68.67 51.0709 68.6529 51.0439 68.6444V82.2778C51.0439 82.7959 51.4677 83.22 51.9861 83.22H68.9411C68.8358 82.9223 68.774 82.6063 68.774 82.2782V74.3741C68.774 72.8156 70.0417 71.5478 71.6003 71.5478H79.5044C79.8324 71.5478 80.1485 71.6096 80.4462 71.7149V46.0085C80.4462 45.4902 80.0225 45.0664 79.5044 45.0664L79.5044 45.066Z" fill="white"/>
<path d="M49.7954 56.3988C50.6172 56.1675 51.139 55.6556 51.139 55.1831C51.139 54.7105 50.6172 54.1982 49.7954 53.9673V56.3988Z" fill="white"/>
<path d="M46.5684 50.6148C46.5684 51.0874 47.0901 51.5996 47.9119 51.8306V49.3989C47.0898 49.6299 46.5684 50.1418 46.5684 50.6147V50.6148Z" fill="white"/>
<path d="M64.3743 65.1318C64.6005 64.9811 64.7417 64.7361 64.7793 64.4723C64.8076 64.2085 64.7229 63.9355 64.553 63.7376L54.9821 52.8755L64.9773 42.4183C65.1564 42.2205 65.2503 41.9567 65.2315 41.6929C65.2127 41.4291 65.0808 41.1748 64.8642 41.0146C63.7243 40.1572 62.4808 39.4697 61.1618 38.9705C59.4662 38.3298 57.6951 38 55.8957 38C49.7439 38 44.1483 41.872 41.9622 47.6278C39.0607 55.2962 42.9418 63.9163 50.6386 66.8372C50.667 66.8559 50.7141 66.8655 50.7517 66.8747C52.4097 67.4871 54.1336 67.7981 55.8859 67.7981C58.9196 67.7977 61.8586 66.8747 64.374 65.1317L64.3743 65.1318ZM53.0223 55.1829C53.0223 56.7398 51.6626 58.0003 49.7945 58.3232V58.3738C49.7945 58.8942 49.3729 59.3159 48.8524 59.3159C48.3319 59.3159 47.9103 58.8942 47.9103 58.3738L47.9106 58.3232C46.0425 57.9999 44.6828 56.7397 44.6828 55.1829C44.6828 54.6625 45.1045 54.2408 45.625 54.2408C46.1454 54.2408 46.5671 54.6625 46.5671 55.1829C46.5671 55.6555 47.0889 56.1677 47.9107 56.3987V53.7545C46.0426 53.4312 44.6829 52.171 44.6829 50.6142C44.6829 49.0574 46.0426 47.7971 47.9107 47.4742V47.4233C47.9107 46.9028 48.3324 46.4811 48.8528 46.4811C49.3732 46.4811 49.795 46.9028 49.795 47.4233V47.4742C51.6631 47.7971 53.0227 49.0574 53.0227 50.6142C53.0227 51.1346 52.6011 51.5563 52.0806 51.5563C51.5602 51.5563 51.1384 51.1347 51.1384 50.6142C51.1384 50.1416 50.6167 49.6297 49.7949 49.3987V52.0425C51.6627 52.3655 53.0224 53.6261 53.0224 55.1828L53.0223 55.1829Z" fill="white"/>
</svg>
