<svg width="13" height="12" viewBox="0 0 13 12" fill="none" xmlns="http://www.w3.org/2000/svg">
<path d="M6.69295 0C7.88003 0.00117187 9.03999 0.354489 10.0263 1.01517C11.0125 1.67585 11.7806 2.61426 12.2335 3.71171C12.6862 4.80908 12.8032 6.01611 12.5698 7.1801C12.3363 8.34409 11.7629 9.41251 10.922 10.2504C10.0811 11.0882 9.01051 11.6579 7.84573 11.887C6.68099 12.1163 5.47447 11.9949 4.37862 11.5382C3.28293 11.0816 2.34728 10.3101 1.69022 9.32148C1.03306 8.33284 0.683925 7.17157 0.687032 5.98444C0.691134 4.3948 1.32594 2.87176 2.45202 1.74977C3.57802 0.627807 5.10335 -0.00149998 6.6929 0.000107142L6.69295 0ZM6.23449 4.55995H5.16408H5.16416C5.08623 4.56062 5.00881 4.5715 4.93372 4.59234C4.84215 4.61143 4.77217 4.68576 4.75853 4.77834C4.73316 4.87895 4.78381 4.98324 4.87856 5.02551C4.99382 5.07942 5.1177 5.11273 5.24451 5.12395C5.57807 5.13952 5.71251 5.28592 5.66211 5.6291C5.56853 6.27112 5.44255 6.90827 5.33449 7.54912C5.26133 7.98112 5.20006 8.41429 5.12933 8.84629C5.03449 9.42828 5.57691 9.9743 6.00772 10.0463C6.26293 10.082 6.52042 10.0985 6.77814 10.0955C7.33026 10.0948 7.85776 9.86647 8.2361 9.46428C8.30482 9.401 8.35638 9.32131 8.3861 9.23266C8.40058 9.15523 8.38233 9.0753 8.33571 9.01184C8.27929 8.9766 8.2099 8.96907 8.14729 8.9915C8.04885 9.02389 7.96129 9.09111 7.86529 9.13313V9.13305C7.75313 9.18544 7.6356 9.22562 7.51489 9.25308C7.41754 9.27694 7.31459 9.25693 7.23322 9.19825C7.15194 9.13958 7.10046 9.04817 7.09251 8.94831C7.07225 8.83665 7.06866 8.72256 7.08171 8.60989C7.12248 8.3315 7.18015 8.05552 7.23054 7.77946C7.36731 7.0267 7.50609 6.27354 7.64689 5.51984C7.68531 5.31343 7.7501 5.1106 7.70691 4.89349V4.89341C7.70013 4.79698 7.65493 4.70725 7.58135 4.64447C7.50777 4.5817 7.41202 4.55123 7.31568 4.55985H6.23447L6.23449 4.55995ZM6.8873 1.89127C6.59727 1.87854 6.31409 1.98209 6.10065 2.17896C5.88728 2.37592 5.76131 2.64981 5.75068 2.94001C5.74013 3.23013 5.84577 3.51256 6.04423 3.72448C6.24269 3.93642 6.51749 4.06039 6.80778 4.06892C7.09799 4.07737 7.37958 3.96965 7.59009 3.76967C7.8006 3.56962 7.92257 3.2939 7.92891 3.00361C7.93695 2.71859 7.83198 2.44187 7.63687 2.23395C7.44175 2.02594 7.1723 1.90365 6.8873 1.8936V1.89127Z" fill="#90A0A9"/>
</svg>
