<svg width="109" height="83" viewBox="0 0 109 83" fill="none" xmlns="http://www.w3.org/2000/svg">
<g opacity="0.02">
<path d="M105.774 76.6153H102.368V37.8819C102.369 36.44 101.951 35.0294 101.166 33.8208C100.381 32.6115 99.2611 31.6569 97.9438 31.0716L89.5988 27.3662V76.6167H83.2142V7.44878C83.2142 5.47339 82.4298 3.57836 81.0327 2.18145C79.6357 0.784417 77.7408 0 75.7654 0H33.2007C31.2253 0 29.3302 0.784397 27.9333 2.18145C26.5363 3.57849 25.7519 5.47339 25.7519 7.44878V76.6167H19.3673V27.3662L11.0223 31.0716C9.70503 31.6568 8.5855 32.6115 7.80017 33.8208C7.015 35.0293 6.59696 36.4401 6.59772 37.8819V76.6153H3.19254C2.05165 76.6153 0.998243 77.2242 0.428119 78.2115C-0.142706 79.1989 -0.142706 80.4165 0.428119 81.4038C0.998184 82.3912 2.05167 83 3.19254 83H105.774C106.915 83 107.968 82.3912 108.538 81.4038C109.109 80.4165 109.109 79.1988 108.538 78.2115C107.968 77.2242 106.915 76.6153 105.774 76.6153H105.774ZM42.7777 12.7692H66.0983C66.9306 12.7601 67.734 13.0695 68.3444 13.6342C68.9547 14.1989 69.3257 14.9765 69.3804 15.8065C69.4229 16.6791 69.1052 17.5319 68.5025 18.1643C67.899 18.7974 67.0621 19.1546 66.1879 19.1539H42.8673C42.035 19.163 41.2316 18.8536 40.6213 18.2889C40.0109 17.7242 39.64 16.9466 39.5853 16.1166C39.5427 15.244 39.8604 14.3912 40.4632 13.7588C41.0667 13.1257 41.9035 12.7685 42.7777 12.7692ZM42.7777 25.5386H66.0983C66.9306 25.5295 67.734 25.8389 68.3444 26.4036C68.9547 26.9684 69.3257 27.7459 69.3804 28.5759C69.4229 29.4485 69.1052 30.3013 68.5025 30.9337C67.899 31.5668 67.0621 31.9241 66.1879 31.9233H42.8673C42.035 31.9324 41.2316 31.6231 40.6213 31.0583C40.0109 30.4936 39.64 29.716 39.5853 28.886C39.5427 28.0134 39.8604 27.1606 40.4632 26.5283C41.0667 25.8951 41.9035 25.5379 42.7777 25.5386ZM42.7777 38.3081H66.0983C66.9306 38.2989 67.734 38.6083 68.3444 39.173C68.9547 39.7378 69.3257 40.5153 69.3804 41.3453C69.4229 42.2179 69.1052 43.0707 68.5025 43.7031C67.899 44.3362 67.0621 44.6935 66.1879 44.6927H42.8673C42.035 44.7018 41.2316 44.3925 40.6213 43.8277C40.0109 43.263 39.64 42.4854 39.5853 41.6554C39.5427 40.7828 39.8604 39.93 40.4632 39.2977C41.0667 38.6645 41.9035 38.3073 42.7777 38.3081ZM42.7777 69.3438C42.7777 62.9211 47.8855 57.5617 54.3022 57.4637V57.4644C57.4367 57.4196 60.4582 58.6319 62.692 60.8309C64.9252 63.0306 66.1845 66.0328 66.1884 69.1675V76.6163H59.8038V69.1675C59.8038 67.2666 58.7899 65.51 57.1435 64.5598C55.4972 63.609 53.4692 63.609 51.8228 64.5598C50.1765 65.5099 49.1625 67.2665 49.1625 69.1675V76.6163H42.7779L42.7777 69.3438Z" fill="#8E2514"/>
</g>
</svg>
