<svg width="43" height="43" viewBox="0 0 43 43" fill="none" xmlns="http://www.w3.org/2000/svg">
<path d="M18 3.17543C20.1658 1.925 22.8342 1.925 25 3.17543L35.6195 9.30662C37.7854 10.5571 39.1195 12.8679 39.1195 15.3688V27.6312C39.1195 30.1321 37.7854 32.4429 35.6195 33.6934L25 39.8246C22.8342 41.075 20.1658 41.075 18 39.8246L7.38045 33.6934C5.21464 32.4429 3.88045 30.1321 3.88045 27.6312V15.3688C3.88045 12.8679 5.21465 10.5571 7.38045 9.30662L18 3.17543Z" fill="#8E2514" stroke="#7C1100" stroke-width="2"/>
<path d="M29.4725 27.656H28.9101V21.2577C28.9102 21.0195 28.8411 20.7864 28.7114 20.5868C28.5817 20.387 28.3968 20.2293 28.1792 20.1327L26.8007 19.5206V27.6562H25.746V16.2305C25.746 15.9041 25.6164 15.5911 25.3857 15.3604C25.1549 15.1296 24.8419 15 24.5156 15H17.4844C17.158 15 16.845 15.1296 16.6143 15.3604C16.3835 15.5911 16.2539 15.9041 16.2539 16.2305V27.6562H15.1992V19.5206L13.8207 20.1327C13.6032 20.2293 13.4182 20.387 13.2885 20.5868C13.1588 20.7864 13.0897 21.0195 13.0899 21.2577V27.656H12.5274C12.3389 27.656 12.1649 27.7565 12.0707 27.9196C11.9764 28.0827 11.9764 28.2839 12.0707 28.447C12.1649 28.6101 12.3389 28.7106 12.5274 28.7106H29.4726C29.6611 28.7106 29.8351 28.6101 29.9293 28.447C30.0236 28.2839 30.0236 28.0827 29.9293 27.9196C29.8351 27.7565 29.6611 27.656 29.4726 27.656H29.4725ZM19.0664 17.1093H22.9187C23.0562 17.1078 23.1889 17.1589 23.2897 17.2522C23.3905 17.3455 23.4518 17.4739 23.4608 17.6111C23.4679 17.7552 23.4154 17.8961 23.3158 18.0005C23.2161 18.1051 23.0779 18.1641 22.9335 18.164H19.0812C18.9437 18.1655 18.811 18.1144 18.7102 18.0211C18.6093 17.9278 18.5481 17.7994 18.539 17.6623C18.532 17.5181 18.5845 17.3773 18.684 17.2728C18.7837 17.1682 18.922 17.1092 19.0664 17.1093ZM19.0664 19.2187H22.9187C23.0562 19.2172 23.1889 19.2683 23.2897 19.3616C23.3905 19.4549 23.4518 19.5833 23.4608 19.7204C23.4679 19.8645 23.4154 20.0054 23.3158 20.1099C23.2161 20.2145 23.0779 20.2735 22.9335 20.2734H19.0812C18.9437 20.2749 18.811 20.2238 18.7102 20.1305C18.6093 20.0372 18.5481 19.9087 18.539 19.7716C18.532 19.6275 18.5845 19.4866 18.684 19.3822C18.7837 19.2776 18.922 19.2186 19.0664 19.2187ZM19.0664 21.328H22.9187C23.0562 21.3265 23.1889 21.3776 23.2897 21.4709C23.3905 21.5642 23.4518 21.6927 23.4608 21.8298C23.4679 21.9739 23.4154 22.1148 23.3158 22.2192C23.2161 22.3238 23.0779 22.3828 22.9335 22.3827H19.0812C18.9437 22.3842 18.811 22.3331 18.7102 22.2398C18.6093 22.1465 18.5481 22.0181 18.539 21.881C18.532 21.7368 18.5845 21.596 18.684 21.4915C18.7837 21.3869 18.922 21.3279 19.0664 21.328ZM19.0664 26.4548C19.0664 25.3938 19.9101 24.5085 20.9701 24.4923V24.4924C21.4879 24.485 21.987 24.6853 22.356 25.0485C22.7249 25.4119 22.9329 25.9078 22.9336 26.4257V27.6561H21.8789V26.4257C21.8789 26.1116 21.7114 25.8215 21.4394 25.6645C21.1675 25.5075 20.8325 25.5075 20.5605 25.6645C20.2886 25.8215 20.1211 26.1116 20.1211 26.4257V27.6561H19.0664L19.0664 26.4548Z" fill="white"/>
</svg>
