<svg width="279" height="223" viewBox="0 0 279 223" fill="none" xmlns="http://www.w3.org/2000/svg">
<mask id="mask0_101_725" style="mask-type:alpha" maskUnits="userSpaceOnUse" x="0" y="0" width="279" height="223">
<path d="M0 18C0 8.05888 8.05887 0 18 0H279V223H0V18Z" fill="white"/>
</mask>
<g mask="url(#mask0_101_725)">
<path fill-rule="evenodd" clip-rule="evenodd" d="M156.781 187.475H22.0444C18.6762 200.962 8.57179 211.077 -3.21938 214.448C-21.7464 221.191 -41.9558 214.448 -52.0605 199.273C-55.4288 194.214 -57.1148 190.842 -58.797 187.471C-105.952 187.471 -107.638 153.755 -87.4287 136.897H-111.006C-124.479 136.897 -126.165 123.411 -119.428 116.667C-111.006 108.236 -38.5877 118.355 -30.1695 111.608C-21.747 106.548 -23.433 93.0618 -35.2237 93.0618C-53.7507 93.0618 -141.328 94.7496 -148.058 91.374C-156.481 88.0024 -158.163 76.1995 -148.058 71.144C-143.004 69.4562 -87.4308 71.144 -77.3261 71.144C-72.2718 71.144 -60.4855 71.144 -60.4855 59.3418C-60.4855 47.5396 -79.0125 49.2268 -85.7493 49.2268C-95.854 49.2268 -166.59 50.9146 -171.64 49.2268C-185.113 45.8552 -183.431 27.3096 -168.272 27.3096H-84.0636C-84.0636 12.1351 -68.9045 3.70825 -52.0639 3.70825H134.878C158.456 3.70825 161.824 15.5104 171.928 28.9978C175.297 34.0572 193.823 61.03 193.823 64.4013C217.401 64.4013 257.818 64.4013 257.818 94.7464V135.205C278.028 135.205 276.345 182.408 259.505 187.468C254.45 189.155 244.345 187.468 237.61 187.468C219.083 226.244 173.614 229.615 158.455 194.211C158.455 190.839 158.455 189.152 156.769 187.468L156.781 187.475ZM217.408 173.989C217.408 147.016 176.99 147.016 176.99 173.989C176.99 184.104 187.095 194.219 197.2 194.219C208.99 194.219 217.409 184.104 217.409 173.989H217.408ZM1.84399 173.989C1.84399 163.874 -6.57848 153.759 -16.683 153.759C-45.3147 153.759 -45.3147 194.218 -16.683 194.218C-6.57828 194.218 1.84399 184.103 1.84399 173.988V173.989ZM106.266 66.092L178.684 67.7798L148.369 20.5771H106.265V66.0956L106.266 66.092Z" fill="#1C8BE3" fill-opacity="0.03"/>
</g>
</svg>
