<svg width="121" height="121" viewBox="0 0 121 121" fill="none" xmlns="http://www.w3.org/2000/svg">
<path d="M50.5 5.7735C56.688 2.20085 64.312 2.20085 70.5 5.7735L102.895 24.4765C109.083 28.0492 112.895 34.6517 112.895 41.797V79.203C112.895 86.3483 109.083 92.9508 102.895 96.5235L70.5 115.226C64.312 118.799 56.688 118.799 50.5 115.226L18.1055 96.5235C11.9174 92.9508 8.10546 86.3483 8.10546 79.203V41.797C8.10546 34.6517 11.9174 28.0492 18.1055 24.4765L50.5 5.7735Z" fill="#1C8BE3"/>
<path fill-rule="evenodd" clip-rule="evenodd" d="M76.7091 71.0063H57.6221C57.145 72.9148 55.7135 74.3463 54.0432 74.8234C51.4186 75.7777 48.5557 74.8234 47.1243 72.6759C46.6471 71.9599 46.4083 71.4828 46.17 71.0057C39.4899 71.0057 39.251 66.2342 42.1139 63.8486H38.7739C36.8654 63.8486 36.6265 61.94 37.5808 60.9857C38.7739 59.7925 49.0328 61.2245 50.2254 60.2697C51.4185 59.5537 51.1797 57.6451 49.5094 57.6451C46.8848 57.6451 34.4784 57.884 33.5251 57.4063C32.3319 56.9291 32.0936 55.2588 33.5251 54.5434C34.2411 54.3045 42.1136 54.5434 43.5451 54.5434C44.2611 54.5434 45.9308 54.5434 45.9308 52.8731C45.9308 51.2029 43.3062 51.4417 42.3518 51.4417C40.9204 51.4417 30.8998 51.6805 30.1843 51.4417C28.2758 50.9645 28.5141 48.34 30.6615 48.34H42.5906C42.5906 46.1925 44.7381 45 47.1238 45H73.6064C76.9464 45 77.4235 46.6702 78.8549 48.5789C79.3321 49.2949 81.9566 53.112 81.9566 53.5891C85.2966 53.5891 91.0223 53.5891 91.0223 57.8835V63.6092C93.8852 63.6092 93.6469 70.2892 91.2611 71.0052C90.5451 71.2441 89.1137 71.0052 88.1595 71.0052C85.5349 76.4927 79.0938 76.9698 76.9463 71.9595C76.9463 71.4824 76.9463 71.2435 76.7075 71.0052L76.7091 71.0063ZM85.2977 69.0977C85.2977 65.2806 79.572 65.2806 79.572 69.0977C79.572 70.5292 81.0034 71.9606 82.4349 71.9606C84.1051 71.9606 85.2978 70.5292 85.2978 69.0977H85.2977ZM54.7605 69.0977C54.7605 67.6663 53.5673 66.2348 52.1359 66.2348C48.0799 66.2348 48.0799 71.9605 52.1359 71.9605C53.5674 71.9605 54.7605 70.529 54.7605 69.0976V69.0977ZM69.5531 53.8284L79.8119 54.0673L75.5175 47.3872H69.553V53.8289L69.5531 53.8284Z" fill="white"/>
</svg>
