<svg width="126" height="83" viewBox="0 0 126 83" fill="none" xmlns="http://www.w3.org/2000/svg">
<g opacity="0.02">
<path d="M56.737 70.4167C55.319 69.6355 53.5344 70.1592 52.8284 71.5196L48.9597 78.6583C48.2429 80.0294 48.8622 81.7565 50.2665 82.5749C51.6854 83.4262 53.4935 82.9542 54.216 81.5558L58.1199 74.3333C58.8279 72.9484 58.1804 71.2038 56.737 70.4167H56.737Z" fill="#732DD1"/>
<path d="M47.4377 64.7919C45.8442 63.9288 43.8264 64.512 43.0492 66.0431L38.9192 73.7844C38.1205 75.3252 38.8217 77.2504 40.4025 78.1788C41.9892 79.1355 44.0245 78.5923 44.8299 77.031L48.9657 69.1961C49.778 67.6367 49.0417 65.6931 47.4375 64.7919H47.4377Z" fill="#732DD1"/>
<path d="M36.8646 59.7665C35.1658 58.8986 33.0769 59.5627 32.29 61.1815L28.1794 69.3947C27.367 71.0223 28.1609 73.0187 29.8363 73.9324C31.541 74.8833 33.668 74.2572 34.4686 72.6159L38.6054 64.3139C39.4022 62.6745 38.5849 60.6489 36.8646 59.7664V59.7665Z" fill="#732DD1"/>
<path d="M7.7003 54.7362L6.05315 56.1044C4.63518 57.3137 4.57082 59.507 5.78594 61.0409C6.98643 62.6363 9.22844 62.9035 10.6512 61.6767L13.9756 58.91L7.7003 54.7362Z" fill="#732DD1"/>
<path d="M42.7134 11.1112C42.7134 11.1112 47.8236 7.06803 52.6831 1.96358C52.6831 1.96358 54.3566 0.416897 57.0813 0.183819C59.8178 -0.0609606 70.6241 -0.656819 78.8315 3.26556C78.8315 3.26556 81.6743 4.5782 85.7165 7.18589C85.7165 7.18589 94.2681 11.468 98.9012 10.5173L114.463 6.47413L125.865 39.9778L112.92 46.3967C112.92 46.3967 112.435 44.6179 109.711 42.5962L80.4967 21.0927C80.4967 21.0927 67.5371 11.7061 60.1683 11.9451C60.1683 11.9451 57.6766 11.4604 55.5409 13.8409C53.4003 16.2214 44.8467 25.13 37.4849 22.5037C37.4849 22.5037 43.0622 21.2037 47.2214 15.7425C47.2224 15.7425 48.063 14.1978 42.7139 11.1102L42.7134 11.1112Z" fill="#732DD1"/>
<path d="M32.4946 19.1899L40.3363 13.012C40.3363 13.012 42.354 13.8409 43.5379 15.2696C43.5398 15.2696 38.1908 21.5597 32.4946 19.1899Z" fill="#732DD1"/>
<path d="M0 46.6943L6.41688 10.1672C6.41688 10.1672 16.1028 14.3207 22.0291 11.2341C22.0291 11.2341 32.728 4.33739 38.0771 4.57831L43.7793 5.29023C43.7793 5.29023 41.0485 8.25987 37.3604 10.4004C33.679 12.5352 29.4084 16.5784 27.6228 18.3582C27.6228 18.3582 25.9552 20.1438 27.4961 21.8007C29.0466 23.4634 34.5146 27.9786 39.9738 27.8615C45.44 27.7455 52.6808 24.421 58.8657 17.0465C58.8657 17.0465 59.9394 16.2244 63.7417 17.4083C67.5342 18.5922 72.4095 20.8625 76.3258 24.0641C79.1384 26.3627 103.531 43.8942 107.218 47.1122C110.895 50.3148 108.643 53.412 108.643 53.412C108.643 53.412 106.618 57.2045 102.466 54.592C98.3047 51.9824 77.5189 38.5497 77.5189 38.5497C77.5189 38.5497 75.1492 37.003 73.8345 38.9066C73.8345 38.9066 71.9348 41.0541 74.4304 42.7109L97.5966 57.7985C97.5966 57.7985 100.566 59.9391 98.1866 63.0306C95.8139 66.125 93.9153 65.2882 93.0754 64.8064C92.2533 64.3393 68.7263 49.1298 68.7263 49.1298C68.7263 49.1298 66.7135 47.9391 65.5238 49.8427C64.3272 51.7444 65.8787 53.5241 65.8787 53.5241L85.4817 66.1277C85.4817 66.1277 88.0933 68.4965 86.3028 70.9873C84.5298 73.4838 83.107 73.718 81.2053 72.4179C79.3007 71.1053 57.7972 57.4464 57.7972 57.4464C57.7972 57.4464 55.7785 55.9045 54.4658 58.0471C54.4658 58.0471 52.6802 59.8229 55.2947 61.8456C57.9074 63.8584 70.5042 71.9516 70.5042 71.9516C70.5042 71.9516 73.3578 73.3706 71.4628 76.4619C69.5543 79.5484 67.1807 78.3577 66.4687 78.1227C65.75 77.8818 61.6035 76.1001 61.6035 76.1001C61.6035 76.1001 65.52 70.6388 59.5848 66.7195C59.5848 66.7195 56.9664 64.6891 53.5239 66.0027C53.5239 66.0027 53.046 63.1552 49.3636 61.0154C49.3636 61.0154 46.2712 59.3448 42.7078 61.0154C42.7078 61.0154 42.5908 57.5719 37.9624 55.5492C37.9624 55.5492 32.8522 53.6533 29.4107 57.9346L26.6625 63.5041L0 46.6943Z" fill="#732DD1"/>
</g>
</svg>
