<svg width="43" height="43" viewBox="0 0 43 43" fill="none" xmlns="http://www.w3.org/2000/svg">
<path d="M18.25 3.60844C20.2611 2.44733 22.7389 2.44733 24.75 3.60844L35.3695 9.73964C37.3807 10.9007 38.6195 13.0466 38.6195 15.3688V27.6312C38.6195 29.9534 37.3807 32.0993 35.3695 33.2604L24.75 39.3916C22.7389 40.5527 20.2611 40.5527 18.25 39.3916L7.63045 33.2604C5.61935 32.0992 4.38045 29.9534 4.38045 27.6312V15.3688C4.38045 13.0466 5.61935 10.9008 7.63045 9.73964L18.25 3.60844Z" fill="#732DD1" stroke="#6112CA" stroke-width="3"/>
<path d="M20.2537 26.7259C19.9974 26.5847 19.6749 26.6794 19.5473 26.9252L18.8482 28.2153C18.7186 28.4631 18.8305 28.7753 19.0843 28.9232C19.3408 29.077 19.6675 28.9917 19.7981 28.739L20.5036 27.4337C20.6316 27.1834 20.5146 26.8682 20.2537 26.7259H20.2537Z" fill="white"/>
<path d="M18.5731 25.7094C18.2851 25.5534 17.9204 25.6588 17.78 25.9355L17.0336 27.3345C16.8893 27.613 17.016 27.9609 17.3017 28.1287C17.5884 28.3016 17.9562 28.2034 18.1018 27.9213L18.8492 26.5053C18.996 26.2235 18.863 25.8722 18.573 25.7094H18.5731Z" fill="white"/>
<path d="M16.6623 24.8012C16.3553 24.6443 15.9778 24.7643 15.8356 25.0569L15.0927 26.5412C14.9459 26.8353 15.0893 27.1961 15.3921 27.3613C15.7002 27.5331 16.0846 27.42 16.2293 27.1233L16.9769 25.623C17.1209 25.3267 16.9732 24.9606 16.6623 24.8011V24.8012Z" fill="white"/>
<path d="M11.3916 23.8921L11.0939 24.1394C10.8377 24.3579 10.826 24.7543 11.0456 25.0315C11.2626 25.3198 11.6678 25.3681 11.9249 25.1464L12.5257 24.6464L11.3916 23.8921Z" fill="white"/>
<path d="M17.7193 16.008C17.7193 16.008 18.6429 15.2774 19.5211 14.3549C19.5211 14.3549 19.8235 14.0753 20.3159 14.0332C20.8105 13.989 22.7634 13.8813 24.2467 14.5902C24.2467 14.5902 24.7605 14.8274 25.491 15.2987C25.491 15.2987 27.0365 16.0725 27.8738 15.9007L30.6861 15.17L32.7467 21.2249L30.4072 22.3849C30.4072 22.3849 30.3197 22.0635 29.8274 21.6981L24.5476 17.8119C24.5476 17.8119 22.2055 16.1156 20.8738 16.1587C20.8738 16.1587 20.4235 16.0712 20.0376 16.5014C19.6507 16.9316 18.1049 18.5416 16.7744 18.0669C16.7744 18.0669 17.7824 17.832 18.534 16.845C18.5342 16.845 18.6861 16.5659 17.7194 16.0079L17.7193 16.008Z" fill="white"/>
<path d="M15.8726 17.4681L17.2897 16.3516C17.2897 16.3516 17.6544 16.5014 17.8683 16.7596C17.8687 16.7596 16.902 17.8963 15.8726 17.4681Z" fill="white"/>
<path d="M10 22.4387L11.1597 15.8375C11.1597 15.8375 12.9101 16.5881 13.9812 16.0303C13.9812 16.0303 15.9147 14.7839 16.8814 14.8274L17.9119 14.9561C17.9119 14.9561 17.4184 15.4928 16.7519 15.8796C16.0866 16.2654 15.3148 16.9961 14.9921 17.3177C14.9921 17.3177 14.6907 17.6404 14.9692 17.9399C15.2494 18.2404 16.2376 19.0564 17.2242 19.0352C18.212 19.0142 19.5206 18.4134 20.6384 17.0807C20.6384 17.0807 20.8324 16.9321 21.5196 17.1461C22.205 17.36 23.0861 17.7703 23.7938 18.3489C24.3021 18.7643 28.7104 21.9327 29.3768 22.5143C30.0412 23.093 29.6343 23.6528 29.6343 23.6528C29.6343 23.6528 29.2684 24.3382 28.5179 23.866C27.7659 23.3944 24.0094 20.9668 24.0094 20.9668C24.0094 20.9668 23.5812 20.6873 23.3436 21.0313C23.3436 21.0313 23.0003 21.4194 23.4513 21.7188L27.6379 24.4455C27.6379 24.4455 28.1746 24.8324 27.7446 25.3911C27.3158 25.9503 26.9726 25.7991 26.8209 25.712C26.6723 25.6276 22.4204 22.8789 22.4204 22.8789C22.4204 22.8789 22.0567 22.6637 21.8416 23.0077C21.6254 23.3514 21.9058 23.673 21.9058 23.673L25.4485 25.9508C25.4485 25.9508 25.9205 26.3789 25.5969 26.829C25.2765 27.2802 25.0193 27.3225 24.6757 27.0876C24.3315 26.8504 20.4453 24.3819 20.4453 24.3819C20.4453 24.3819 20.0805 24.1032 19.8432 24.4904C19.8432 24.4904 19.5205 24.8114 19.993 25.1769C20.4652 25.5407 22.7417 27.0033 22.7417 27.0033C22.7417 27.0033 23.2574 27.2597 22.915 27.8184C22.5701 28.3762 22.1411 28.161 22.0124 28.1186C21.8825 28.075 21.1332 27.753 21.1332 27.753C21.1332 27.753 21.841 26.7661 20.7683 26.0577C20.7683 26.0577 20.2951 25.6908 19.673 25.9282C19.673 25.9282 19.5866 25.4136 18.9211 25.0269C18.9211 25.0269 18.3623 24.725 17.7183 25.0269C17.7183 25.0269 17.6971 24.4046 16.8607 24.039C16.8607 24.039 15.9371 23.6964 15.3152 24.4701L14.8185 25.4766L10 22.4387Z" fill="white"/>
</svg>
