<svg width="243" height="236" viewBox="0 0 243 236" fill="none" xmlns="http://www.w3.org/2000/svg">
<path d="M134.157 150.813H120.434L116.24 136.99C116.159 136.659 116.024 136.344 115.837 136.058C115.649 135.812 115.386 135.632 115.088 135.546C114.605 135.419 114.112 135.347 113.613 135.329C112.983 135.302 112.139 135.288 111.081 135.288C110.155 135.288 109.42 135.302 108.871 135.329H108.869C108.425 135.347 107.984 135.42 107.557 135.546C107.279 135.63 107.038 135.807 106.872 136.044C106.701 136.307 106.57 136.593 106.484 136.895L102.277 150.813H88.5947V156.213H100.641L99.4227 160.262L88.5949 160.264V165.663H97.7872L95.7244 172.507C95.5345 173.07 95.3955 173.648 95.3091 174.236C95.2396 174.585 95.3074 174.946 95.4955 175.248C95.7515 175.519 96.1023 175.678 96.4736 175.693C97.1194 175.768 97.7686 175.8 98.4178 175.788C99.1941 175.788 99.8111 175.761 100.294 175.721H100.292C100.674 175.705 101.05 175.627 101.406 175.49C101.635 175.399 101.832 175.239 101.969 175.032C102.099 174.805 102.194 174.56 102.25 174.304L104.206 167.381L103.898 168.566L104.259 167.19L104.489 166.284L104.652 165.662H117.407L118.587 169.902L118.694 170.28L119.94 174.519C119.991 174.748 120.082 174.968 120.208 175.166C120.347 175.355 120.545 175.492 120.77 175.558C121.153 175.668 121.55 175.733 121.948 175.748C122.457 175.775 123.167 175.788 124.093 175.788C124.786 175.795 125.479 175.768 126.171 175.707C126.561 175.707 126.939 175.563 127.228 175.302C127.437 175.024 127.515 174.67 127.444 174.331C127.354 173.731 127.215 173.139 127.028 172.561L124.937 165.663H134.158V160.264H123.303L122.07 156.215L134.157 156.213L134.157 150.813ZM110.974 143.131H111.001L113.225 150.813H108.749L110.974 143.131ZM106.431 158.805L106.07 160.195H106.029L106.431 158.805ZM115.945 160.195H115.896L115.476 158.684L115.891 160.196H106.07L106.484 158.603L107.18 156.213H114.793L115.945 160.195Z" fill="#EF2B58" fill-opacity="0.025"/>
<path d="M217.179 87.3204C215.625 86.4136 213.706 86.4034 212.142 87.295C158.127 118.151 114.56 88.8137 112.942 87.6746C79.8854 62.2357 44.9022 68.5376 23.2882 76.8399C15.8572 79.6197 8.76036 83.2199 2.12562 87.5727C0.78656 88.5185 -0.00843742 90.0576 6.75565e-05 91.6984V215.576C0.00515275 217.468 1.05776 219.202 2.73415 220.081C4.42408 220.939 6.44966 220.793 7.99899 219.702C8.50582 219.322 59.9661 183.581 106.943 219.727C123.344 230.043 142.344 235.479 161.718 235.396C181.236 235.235 200.363 229.907 217.152 219.954C218.738 219.071 219.718 217.393 219.708 215.576V91.6982C219.705 89.8913 218.74 88.2234 217.177 87.3199L217.179 87.3204ZM31.3849 186.013C31.3849 188.808 29.1186 191.074 26.3236 191.074C23.5268 191.074 21.2605 188.808 21.2605 186.013V108.153C21.2605 105.356 23.5268 103.09 26.3236 103.09C29.1187 103.09 31.3849 105.356 31.3849 108.153V186.013ZM111.375 185.911C103.319 185.911 95.5927 182.711 89.8956 177.014C84.2003 171.319 81.0001 163.592 81.0001 155.536C81.0001 147.48 84.2003 139.754 89.8956 134.059C95.5927 128.361 103.319 125.161 111.375 125.161C119.43 125.161 127.156 128.361 132.853 134.059C138.55 139.754 141.75 147.48 141.75 155.536C141.743 163.591 138.541 171.312 132.846 177.007C127.15 182.702 119.428 185.904 111.375 185.911ZM198.451 204.49H198.449C198.449 207.287 196.183 209.553 193.388 209.553C190.591 209.553 188.325 207.287 188.325 204.49V126.631C188.325 123.835 190.591 121.567 193.388 121.567C196.183 121.567 198.449 123.835 198.449 126.631L198.451 204.49Z" fill="#EF2B58" fill-opacity="0.025"/>
<path d="M243 22.141V145.997C243.005 147.819 242.027 149.502 240.444 150.402C236.976 152.377 233.431 154.199 229.838 155.794V94.2328C229.835 88.8187 226.951 83.8151 222.268 81.0979C217.585 78.3807 211.808 78.3604 207.108 81.0453C193.329 89.217 177.638 93.6088 161.619 93.7785C146.554 93.887 131.754 89.8121 118.867 82.0082C102.251 68.9635 81.7222 61.9 60.5952 61.9595C47.8742 62.0544 35.2595 64.2969 23.2861 68.592V22.1445C23.2828 20.5071 24.076 18.968 25.4117 18.0188C25.9948 17.6137 83.5536 -22.4041 136.228 18.1459C137.848 19.2595 181.409 48.6224 235.428 17.7408C236.996 16.8543 238.918 16.8662 240.476 17.773C242.034 18.6781 242.993 20.3427 242.996 22.1444L243 22.141Z" fill="#EF2B58" fill-opacity="0.025"/>
</svg>
