<svg width="121" height="121" viewBox="0 0 121 121" fill="none" xmlns="http://www.w3.org/2000/svg">
<path d="M50.5 5.7735C56.688 2.20085 64.312 2.20085 70.5 5.7735L102.895 24.4765C109.083 28.0492 112.895 34.6517 112.895 41.797V79.203C112.895 86.3483 109.083 92.9508 102.895 96.5235L70.5 115.226C64.312 118.799 56.688 118.799 50.5 115.226L18.1055 96.5235C11.9174 92.9508 8.10546 86.3483 8.10546 79.203V41.797C8.10546 34.6517 11.9174 28.0492 18.1055 24.4765L50.5 5.7735Z" fill="#EF2B58"/>
<path d="M62.5565 66.4085H60.1535L59.4191 63.9881C59.4049 63.9302 59.3811 63.875 59.3485 63.8248C59.3155 63.7818 59.2695 63.7503 59.2173 63.7352C59.1327 63.7129 59.0463 63.7005 58.9591 63.6972C58.8487 63.6924 58.7008 63.6901 58.5156 63.6901C58.3536 63.6901 58.2248 63.6924 58.1286 63.6972H58.1283C58.0505 63.7005 57.9734 63.7132 57.8986 63.7352C57.8499 63.75 57.8077 63.7809 57.7787 63.8224C57.7487 63.8684 57.7258 63.9186 57.7107 63.9714L56.974 66.4086H54.5781V67.3542H56.6876L56.4742 68.0633L54.5782 68.0636V69.0089H56.1878L55.8266 70.2074C55.7933 70.3059 55.769 70.4071 55.7539 70.5101C55.7417 70.5713 55.7536 70.6345 55.7865 70.6873C55.8313 70.7348 55.8928 70.7627 55.9578 70.7654C56.0709 70.7785 56.1845 70.7841 56.2982 70.782C56.4342 70.782 56.5422 70.7773 56.6268 70.7701H56.6265C56.6933 70.7675 56.7592 70.7538 56.8215 70.7298C56.8616 70.7138 56.896 70.6859 56.9201 70.6496C56.9429 70.6099 56.9595 70.5668 56.9693 70.522L57.3118 69.3098L57.2578 69.5173L57.321 69.2763L57.3614 69.1178L57.3899 69.0089H59.6235L59.8301 69.7512L59.8488 69.8174L60.0669 70.5597C60.0758 70.5998 60.0918 70.6384 60.1138 70.6731C60.1381 70.706 60.1729 70.7301 60.2124 70.7417C60.2794 70.761 60.3489 70.7722 60.4186 70.7749C60.5077 70.7797 60.632 70.782 60.7941 70.782C60.9155 70.7832 61.0369 70.7785 61.158 70.7678C61.2263 70.7678 61.2925 70.7426 61.3432 70.6968C61.3797 70.6482 61.3934 70.5861 61.3809 70.5268C61.3652 70.4217 61.3408 70.3181 61.3082 70.2169L60.9419 69.0089H62.5566V68.0636H60.6558L60.44 67.3545L62.5565 67.3542L62.5565 66.4085ZM58.4969 65.0634H58.5017L58.8911 66.4085H58.1072L58.4969 65.0634ZM57.7014 67.808L57.6382 68.0514H57.6311L57.7014 67.808ZM59.3675 68.0514H59.3589L59.2853 67.7869L59.358 68.0517H57.6382L57.7106 67.7727L57.8326 67.3542H59.1656L59.3675 68.0514Z" fill="white"/>
<path d="M77.0945 55.2905C76.8223 55.1318 76.4863 55.13 76.2124 55.2861C66.7538 60.6893 59.125 55.552 58.8416 55.3526C53.0531 50.898 46.9272 52.0015 43.1424 53.4553C41.8412 53.9421 40.5985 54.5725 39.4367 55.3347C39.2022 55.5003 39.063 55.7699 39.0645 56.0572V77.7492C39.0654 78.0804 39.2497 78.3841 39.5432 78.5381C39.8391 78.6883 40.1938 78.6628 40.4651 78.4717C40.5539 78.4052 49.565 72.1466 57.7911 78.4761C60.6631 80.2825 63.9901 81.2344 67.3826 81.2198C70.8004 81.1916 74.1497 80.2588 77.0896 78.5158C77.3674 78.3612 77.539 78.0674 77.5372 77.7492V56.0571C77.5366 55.7407 77.3677 55.4487 77.0941 55.2905L77.0945 55.2905ZM44.5602 72.5724C44.5602 73.0619 44.1634 73.4587 43.6739 73.4587C43.1842 73.4587 42.7874 73.0619 42.7874 72.5724V58.9386C42.7874 58.4488 43.1842 58.052 43.6739 58.052C44.1634 58.052 44.5602 58.4488 44.5602 58.9386V72.5724ZM58.5672 72.5546C57.1565 72.5546 55.8036 71.9942 54.806 70.9966C53.8087 69.9993 53.2483 68.6464 53.2483 67.2357C53.2483 65.825 53.8087 64.4721 54.806 63.4748C55.8036 62.4772 57.1565 61.9168 58.5672 61.9168C59.9776 61.9168 61.3305 62.4772 62.3281 63.4748C63.3257 64.4721 63.8861 65.825 63.8861 67.2357C63.8849 68.6461 63.3242 69.9981 62.3269 70.9954C61.3296 71.9927 59.9773 72.5534 58.5672 72.5546ZM73.815 75.808H73.8147C73.8147 76.2977 73.4178 76.6946 72.9284 76.6946C72.4387 76.6946 72.0418 76.2977 72.0418 75.808V62.1741C72.0418 61.6847 72.4387 61.2875 72.9284 61.2875C73.4178 61.2875 73.8147 61.6847 73.8147 62.1741L73.815 75.808Z" fill="white"/>
<path d="M81.6159 43.8771V65.5653C81.6167 65.8844 81.4455 66.1791 81.1683 66.3367C80.561 66.6825 79.9403 67.0016 79.3111 67.2809V56.501C79.3105 55.5529 78.8057 54.6768 77.9856 54.2009C77.1655 53.7251 76.154 53.7216 75.3308 54.1917C72.918 55.6227 70.1704 56.3917 67.3654 56.4214C64.7273 56.4404 62.1358 55.7269 59.8792 54.3603C56.9695 52.0761 53.3748 50.8392 49.6752 50.8496C47.4477 50.8663 45.2387 51.2589 43.1421 52.0111V43.8777C43.1415 43.591 43.2804 43.3215 43.5143 43.1552C43.6164 43.0843 53.6954 36.0768 62.9192 43.1775C63.2029 43.3725 70.8307 48.5142 80.29 43.1066C80.5645 42.9513 80.9011 42.9534 81.1739 43.1122C81.4467 43.2707 81.6147 43.5622 81.6153 43.8777L81.6159 43.8771Z" fill="white"/>
</svg>
