<svg width="180" height="18" viewBox="0 0 180 18" fill="none" xmlns="http://www.w3.org/2000/svg">
<path d="M148.263 1.60297C148.433 1.43346 148.662 1.33723 148.902 1.335H177.759C177.998 1.33723 178.228 1.43346 178.397 1.60297C178.567 1.77221 178.663 2.00144 178.665 2.24171V15.7583C178.663 15.9986 178.567 16.2277 178.397 16.397C178.228 16.5666 177.998 16.6628 177.759 16.665H148.902C148.662 16.6628 148.433 16.5666 148.263 16.397C148.094 16.2278 147.998 15.9986 147.995 15.7584V2.24165C147.998 2.0014 148.094 1.7722 148.263 1.60297Z" fill="white" stroke="#E0E0E0" stroke-width="0.67"/>
<path d="M158.78 17H177.78C177.943 17.0013 178.104 16.9705 178.254 16.9093C178.404 16.848 178.541 16.7576 178.656 16.6433C178.772 16.5289 178.863 16.3929 178.926 16.243C178.988 16.0931 179.02 15.9324 179.02 15.77V10C179.02 10 171.88 14.84 158.8 17H158.78Z" fill="#F58220"/>
<path fill-rule="evenodd" clip-rule="evenodd" d="M152.39 8.43998C152.108 8.66612 151.75 8.77372 151.39 8.73998H151.19V6.30998H151.39C151.568 6.29165 151.748 6.30872 151.92 6.3602C152.091 6.41169 152.251 6.49657 152.39 6.60998C152.519 6.72336 152.623 6.86331 152.694 7.02034C152.765 7.17736 152.801 7.34777 152.8 7.51998C152.801 7.69368 152.765 7.86561 152.694 8.02427C152.624 8.18293 152.52 8.32466 152.39 8.43998ZM151.53 5.68998H150.44V9.35998H151.52C152.01 9.38407 152.493 9.23149 152.88 8.92998C153.092 8.76084 153.262 8.54634 153.38 8.3023C153.498 8.05826 153.559 7.79092 153.56 7.51998C153.558 7.26557 153.504 7.01429 153.4 6.78184C153.297 6.54939 153.146 6.34077 152.959 6.16902C152.771 5.99727 152.55 5.86609 152.309 5.78366C152.069 5.70124 151.813 5.66935 151.56 5.68998H151.53ZM153.91 5.68998H154.64V9.35998H153.91V5.68998ZM156.45 7.08998C156.01 6.93998 155.88 6.82998 155.88 6.62998C155.88 6.42998 156.11 6.22998 156.43 6.22998C156.545 6.231 156.659 6.25754 156.762 6.30768C156.866 6.35782 156.957 6.43033 157.03 6.51998L157.41 6.02998C157.101 5.76603 156.706 5.62382 156.3 5.62998C156.011 5.6078 155.725 5.70036 155.504 5.88757C155.284 6.07478 155.145 6.34154 155.12 6.62998C155.12 7.12998 155.35 7.38998 156.05 7.62998C156.226 7.68541 156.396 7.75566 156.56 7.83998C156.625 7.8801 156.68 7.9349 156.72 7.99998C156.758 8.06712 156.779 8.14278 156.78 8.21998C156.779 8.29224 156.763 8.36349 156.733 8.42937C156.703 8.49524 156.661 8.55435 156.607 8.60305C156.554 8.65175 156.491 8.68902 156.423 8.71257C156.354 8.73612 156.282 8.74545 156.21 8.73998C156.041 8.74206 155.875 8.69704 155.73 8.60998C155.588 8.5231 155.474 8.39841 155.4 8.24998L154.92 8.69998C155.06 8.92184 155.255 9.10321 155.487 9.22603C155.718 9.34885 155.978 9.40883 156.24 9.39998C156.407 9.41384 156.575 9.39282 156.734 9.33825C156.892 9.28368 157.038 9.19675 157.161 9.08298C157.284 8.96921 157.382 8.83108 157.449 8.67735C157.516 8.52363 157.55 8.35766 157.55 8.18998C157.55 7.60998 157.29 7.33998 156.45 7.03998V7.08998ZM157.78 7.51998C157.781 7.77859 157.834 8.03433 157.936 8.272C158.038 8.50967 158.187 8.72444 158.373 8.90353C158.56 9.08263 158.78 9.22241 159.022 9.31456C159.264 9.40671 159.521 9.44937 159.78 9.43998C160.103 9.44288 160.422 9.36739 160.71 9.21998V8.37998C160.597 8.50653 160.458 8.60762 160.303 8.67657C160.148 8.74552 159.98 8.78077 159.81 8.77998C159.642 8.78696 159.475 8.75922 159.318 8.6985C159.161 8.63778 159.019 8.54539 158.9 8.42711C158.781 8.30883 158.687 8.16721 158.625 8.01112C158.563 7.85503 158.534 7.68783 158.54 7.51998C158.537 7.35547 158.567 7.19207 158.628 7.03931C158.69 6.88655 158.78 6.74749 158.896 6.63021C159.011 6.51294 159.149 6.41981 159.301 6.35625C159.452 6.29269 159.615 6.25996 159.78 6.25998C159.955 6.26061 160.128 6.29734 160.288 6.3679C160.448 6.43845 160.591 6.54129 160.71 6.66998V5.82998C160.429 5.68346 160.117 5.60793 159.8 5.60998C159.281 5.60427 158.781 5.80028 158.404 6.15664C158.027 6.51299 157.803 7.00183 157.78 7.51998ZM166.7 8.14998L165.7 5.68998H164.89L166.5 9.44998H166.9L168.54 5.68998H167.74L166.74 8.14998H166.7ZM168.86 9.35998H170.96V8.73998H169.6V7.73998H170.91V7.11998H169.6V6.30998H170.96V5.68998H168.86V9.35998ZM172.4 7.35998H172.19V6.26998H172.42C172.88 6.26998 173.13 6.44998 173.13 6.80998C173.13 7.16998 172.88 7.37998 172.4 7.37998V7.35998ZM173.89 6.74998C173.89 6.05998 173.4 5.66998 172.55 5.66998H171.45V9.35998H172.19V7.87998H172.29L173.29 9.35998H174.2L173.03 7.80998C173.27 7.77602 173.49 7.65585 173.648 7.47187C173.806 7.28788 173.892 7.05264 173.89 6.80998V6.74998Z" fill="#1A1919"/>
<path fill-rule="evenodd" clip-rule="evenodd" d="M164.99 7.52979C164.99 8.06022 164.779 8.56893 164.404 8.944C164.029 9.31907 163.521 9.52978 162.99 9.52978C162.46 9.52978 161.951 9.31907 161.576 8.944C161.201 8.56893 160.99 8.06022 160.99 7.52979C160.99 6.99935 161.201 6.49064 161.576 6.11557C161.951 5.7405 162.46 5.52979 162.99 5.52979C163.521 5.52979 164.029 5.7405 164.404 6.11557C164.779 6.49064 164.99 6.99935 164.99 7.52979Z" fill="#F58220"/>
<path d="M142 0.669922H112C111.735 0.669922 111.48 0.775279 111.293 0.962815C111.105 1.15035 111 1.40471 111 1.66992V16.3299C111 16.5951 111.105 16.8495 111.293 17.037C111.48 17.2246 111.735 17.3299 112 17.3299H142C142.265 17.3299 142.519 17.2246 142.707 17.037C142.895 16.8495 143 16.5951 143 16.3299V1.66992C143 1.40471 142.895 1.15035 142.707 0.962815C142.519 0.775279 142.265 0.669922 142 0.669922Z" fill="white" stroke="#E0E0E0" stroke-width="0.67"/>
<path d="M129.12 11.69L128.84 11.35V11.69H127.92V11.1C127.802 11.1591 127.672 11.1899 127.54 11.19H127.21V11.69H125.83L125.58 11.36L125.33 11.69H123.04V9.51H125.33L125.58 9.83L125.83 9.51H134.23V2H120.33V7.87L120.85 6.64H121.75L122.05 7.32V6.64H123.17L123.35 7.14L123.52 6.64H128.52V6.89C128.723 6.7243 128.978 6.63574 129.24 6.64H130.84L131.14 7.32V6.64H132.09L132.33 7V6.64H133.33V8.82H132.33L132.08 8.43V8.82H130.7L130.56 8.49H130.19L130.05 8.82H129.2C128.949 8.83266 128.703 8.75056 128.51 8.59V8.82H127.1L126.82 8.48V8.82H121.58L121.45 8.49H121.07L120.93 8.82H120.33V15.91H134.24V11.53C134.086 11.641 133.9 11.6973 133.71 11.69H129.12Z" fill="#0079C1"/>
<path d="M105.33 0.669922H75.3301C75.0649 0.669922 74.8105 0.775279 74.623 0.962815C74.4355 1.15035 74.3301 1.40471 74.3301 1.66992V16.3299C74.3301 16.5951 74.4355 16.8495 74.623 17.037C74.8105 17.2246 75.0649 17.3299 75.3301 17.3299H105.33C105.595 17.3299 105.85 17.2246 106.037 17.037C106.225 16.8495 106.33 16.5951 106.33 16.3299V1.66992C106.33 1.40471 106.225 1.15035 106.037 0.962815C105.85 0.775279 105.595 0.669922 105.33 0.669922Z" fill="white" stroke="#E0E0E0" stroke-width="0.67"/>
<path d="M86.79 14C87.7789 14 88.7456 13.7068 89.5678 13.1573C90.3901 12.6079 91.0309 11.827 91.4094 10.9134C91.7878 9.99979 91.8868 8.99446 91.6939 8.02455C91.501 7.05465 91.0248 6.16373 90.3255 5.46447C89.6262 4.76521 88.7353 4.289 87.7654 4.09608C86.7955 3.90315 85.7902 4.00217 84.8765 4.3806C83.9629 4.75904 83.182 5.39991 82.6326 6.22215C82.0832 7.0444 81.79 8.0111 81.79 9C81.79 10.3261 82.3167 11.5979 83.2544 12.5355C84.1921 13.4732 85.4639 14 86.79 14Z" fill="#007BDB"/>
<path d="M93.8705 14.0001C94.8567 13.9883 95.8175 13.685 96.6318 13.1285C97.4461 12.5719 98.0776 11.7869 98.4469 10.8723C98.8161 9.95773 98.9066 8.95434 98.707 7.98842C98.5073 7.0225 98.0265 6.13721 97.3249 5.44393C96.6233 4.75066 95.7323 4.28038 94.7641 4.09227C93.7958 3.90415 92.7936 4.00661 91.8835 4.38675C90.9733 4.76689 90.1959 5.40772 89.6491 6.22862C89.1023 7.04951 88.8106 8.01379 88.8105 9.00013C88.8104 9.66182 88.9417 10.3169 89.1967 10.9275C89.4518 11.5381 89.8254 12.092 90.2961 12.557C90.7668 13.0221 91.3251 13.3892 91.9386 13.6369C92.5522 13.8846 93.2088 14.0081 93.8705 14.0001Z" fill="#E42B00"/>
<path fill-rule="evenodd" clip-rule="evenodd" d="M90.3305 12.5799C91.2272 11.5927 91.763 10.3308 91.8505 8.99992C91.763 7.66909 91.2272 6.40716 90.3305 5.41992C89.8389 5.87561 89.4492 6.4302 89.1873 7.04722C88.9253 7.66424 88.7969 8.32973 88.8105 8.99992C88.7988 9.66985 88.928 10.3348 89.1899 10.9515C89.4518 11.5683 89.8404 12.1231 90.3305 12.5799Z" fill="#1740CE"/>
<path d="M68.6602 0.669922H38.6602C38.395 0.669922 38.1406 0.775279 37.9531 0.962815C37.7655 1.15035 37.6602 1.40471 37.6602 1.66992V16.3299C37.6602 16.5951 37.7655 16.8495 37.9531 17.037C38.1406 17.2246 38.395 17.3299 38.6602 17.3299H68.6602C68.9254 17.3299 69.1797 17.2246 69.3673 17.037C69.5548 16.8495 69.6602 16.5951 69.6602 16.3299V1.66992C69.6602 1.40471 69.5548 1.15035 69.3673 0.962815C69.1797 0.775279 68.9254 0.669922 68.6602 0.669922Z" fill="white" stroke="#E0E0E0" stroke-width="0.67"/>
<path d="M50.1303 14.0001C51.1166 13.9883 52.0773 13.685 52.8916 13.1285C53.706 12.5719 54.3375 11.7869 54.7067 10.8723C55.076 9.95773 55.1665 8.95434 54.9668 7.98842C54.7672 7.0225 54.2863 6.13721 53.5847 5.44393C52.8831 4.75066 51.9922 4.28038 51.0239 4.09227C50.0557 3.90415 49.0535 4.00661 48.1433 4.38675C47.2332 4.76689 46.4558 5.40772 45.909 6.22862C45.3622 7.04951 45.0704 8.01379 45.0703 9.00013C45.0703 9.66182 45.2016 10.3169 45.4566 10.9275C45.7116 11.5381 46.0853 12.092 46.5559 12.557C47.0266 13.0221 47.5849 13.3892 48.1985 13.6369C48.8121 13.8846 49.4687 14.0081 50.1303 14.0001Z" fill="#CC0000"/>
<path d="M57.2002 14C58.1891 14 59.1558 13.7068 59.9781 13.1573C60.8003 12.6079 61.4412 11.827 61.8196 10.9134C62.1981 9.99979 62.2971 8.99446 62.1041 8.02455C61.9112 7.05465 61.435 6.16373 60.7358 5.46447C60.0365 4.76521 59.1456 4.289 58.1757 4.09608C57.2058 3.90315 56.2004 4.00217 55.2868 4.3806C54.3732 4.75904 53.5923 5.39991 53.0429 6.22215C52.4935 7.0444 52.2002 8.0111 52.2002 9C52.2002 10.3261 52.727 11.5979 53.6647 12.5355C54.6024 13.4732 55.8741 14 57.2002 14Z" fill="#FF9900"/>
<path fill-rule="evenodd" clip-rule="evenodd" d="M53.6595 12.5799C54.5563 11.5927 55.0921 10.3308 55.1795 8.99992C55.0921 7.66909 54.5563 6.40716 53.6595 5.41992C53.1702 5.8769 52.7828 6.43195 52.5226 7.04884C52.2624 7.66572 52.1353 8.33056 52.1495 8.99992C52.1372 9.66902 52.2652 10.3333 52.5252 10.9499C52.7853 11.5665 53.1717 12.1218 53.6595 12.5799Z" fill="#F16D27"/>
<path d="M32 0.669922H2C1.73479 0.669922 1.48043 0.775279 1.29289 0.962815C1.10536 1.15035 1 1.40471 1 1.66992V16.3299C1 16.5951 1.10536 16.8495 1.29289 17.037C1.48043 17.2246 1.73479 17.3299 2 17.3299H32C32.2652 17.3299 32.5196 17.2246 32.7071 17.037C32.8947 16.8495 33 16.5951 33 16.3299V1.66992C33 1.40471 32.8947 1.15035 32.7071 0.962815C32.5196 0.775279 32.2652 0.669922 32 0.669922Z" fill="white" stroke="#E0E0E0" stroke-width="0.67"/>
<path d="M14.3301 5.79996L11.5801 12.36H9.76008L8.41008 7.11996C8.39414 6.9972 8.34846 6.8802 8.27701 6.77912C8.20555 6.67804 8.11049 6.59594 8.00008 6.53996C7.46726 6.29318 6.90651 6.11186 6.33008 5.99996V5.79996H9.26008C9.44867 5.80277 9.62985 5.87383 9.77008 5.99996C9.91026 6.12604 10.0051 6.29469 10.0401 6.47996L10.7501 10.28L12.5201 5.79996H14.3301ZM21.3301 10.22C21.3301 8.47996 18.9401 8.38996 18.9501 7.60996C18.9501 7.37996 19.1801 7.12996 19.6701 7.06996C20.2395 7.01357 20.8135 7.11385 21.3301 7.35996L21.6401 5.99996C21.1353 5.80868 20.6 5.71042 20.0601 5.70996C18.3901 5.70996 17.2001 6.59996 17.1901 7.87996C17.1901 8.81996 18.0301 9.34996 18.6801 9.65996C19.3301 9.96996 19.5601 10.19 19.5601 10.48C19.5601 10.92 19.0301 11.11 18.5601 11.12C17.9534 11.1336 17.3537 10.9888 16.8201 10.7L16.5101 12.14C17.1132 12.3719 17.7539 12.4906 18.4001 12.49C20.1801 12.49 21.3501 11.61 21.3501 10.25L21.3301 10.22ZM25.7601 12.35H27.3301L25.9601 5.79996H24.5101C24.3567 5.79702 24.2062 5.84251 24.0801 5.92996C23.9482 6.01225 23.8464 6.13504 23.7901 6.27996L21.2401 12.36H23.0201L23.3801 11.36H25.5601L25.7601 12.35ZM23.8701 9.99996L24.7601 7.53996L25.2701 9.99996H23.8701ZM16.7301 5.79996L15.3301 12.36H13.6301L15.0301 5.79996H16.7301Z" fill="#1A1F71"/>
</svg>
