<svg width="21" height="19" viewBox="0 0 21 19" fill="none" xmlns="http://www.w3.org/2000/svg">
<path d="M3.17285 11.301L12.5242 1.94971L16.2399 5.66541L6.88855 15.0167L3.17285 11.301Z" fill="#1F86FF"/>
<path d="M17.4193 4.48599C18.0832 3.8221 18.3426 2.85463 18.0996 1.94773C17.8565 1.04084 17.1483 0.332545 16.2414 0.0895803C15.3345 -0.153385 14.367 0.105927 13.7031 0.769801L13.0605 1.41321L16.7767 5.1294L17.4193 4.48599Z" fill="#1F86FF"/>
<path d="M2.84484 12.0449L1.771 16.4191L6.14518 15.3451L2.84484 12.0449Z" fill="#1F86FF"/>
<path d="M20.4947 18.2417H1.25334C1.04384 18.2417 0.874023 18.4115 0.874023 18.621C0.874023 18.8303 1.04384 19.0002 1.25334 19.0002H20.4947C20.7042 19.0002 20.874 18.8303 20.874 18.621C20.874 18.4115 20.7042 18.2417 20.4947 18.2417Z" fill="#1F86FF"/>
</svg>
