<svg width="66" height="84" viewBox="0 0 66 84" fill="none" xmlns="http://www.w3.org/2000/svg">
<g opacity="0.02">
<path d="M55.417 48.4429H54.7156C51.676 47.0402 49.1033 46.1046 48.6363 45.8711C47.9349 45.6375 47.4671 45.4033 46.7658 45.1697C46.0645 44.9362 45.5967 44.4684 44.8953 44.2341L44.6618 44.0006L44.1933 43.7664C43.7255 43.5328 42.7906 42.8308 42.3228 42.3636L41.6214 42.1301L41.3879 42.3636C38.5817 44.9355 35.3086 46.1046 32.2681 46.1046C29.4619 46.1046 26.1888 44.7019 23.3826 41.8958L23.149 41.6622L22.9155 41.8958C22.4477 42.3636 21.9799 42.8314 21.5127 43.2985C21.2792 43.5321 21.2792 43.5321 21.0449 43.7663C17.771 46.1047 11.9251 47.9751 9.58681 48.9108C6.78065 49.8464 5.61148 51.4826 5.37799 51.9505C1.8705 57.095 0.467832 66.9161 0 72.2939C9.11981 79.7767 20.8111 83.9855 32.5027 83.9855C44.4279 83.9855 55.886 79.7767 65.0055 72.5274C64.5377 67.1494 63.135 57.3283 59.6275 52.184C59.6262 51.249 58.457 49.6121 55.4167 48.443L55.417 48.4429Z" fill="#004850"/>
<path d="M18.9396 27.8655C19.1732 28.099 19.1732 28.3333 19.4074 28.5668C20.5766 36.0496 26.8902 43.2981 32.5017 43.2981C39.0488 43.2981 45.3625 35.5818 46.5316 28.5668C46.5316 28.3333 46.7652 28.099 46.7652 27.8655C47.233 27.3977 47.4666 26.6963 47.7008 25.7606C48.4022 22.9545 48.1686 21.5518 47.9344 21.3175L47.7008 21.0839C47.4672 20.8504 47.4672 20.3826 47.4672 19.9148C48.4028 16.6408 49.3377 10.7949 45.8303 6.82046C45.5967 6.35266 43.492 4.0143 39.0488 2.61164L36.7105 1.67604C33.203 0.506881 30.8647 0.273315 30.8647 0.273315H30.6311H29.9297H28.527C28.0592 0.273315 27.5914 0.506881 27.3578 0.506881C26.1887 0.97468 20.1094 3.78087 18.238 9.62669C18.0045 10.3281 17.3024 13.1342 18.4716 19.6813C18.4716 20.1491 18.238 20.6169 18.0038 21.0841V21.3176C17.536 22.019 17.536 23.6559 18.2374 25.5264C18.238 26.6963 18.4716 27.3976 18.9394 27.8654L18.9396 27.8655Z" fill="#004850"/>
</g>
</svg>
