<svg width="43" height="43" viewBox="0 0 43 43" fill="none" xmlns="http://www.w3.org/2000/svg">
<path d="M18 3.1753C20.1658 1.92487 22.8342 1.92488 25 3.1753L35.6195 9.3065C37.7854 10.5569 39.1195 12.8678 39.1195 15.3687V27.6311C39.1195 30.1319 37.7854 32.4428 35.6195 33.6933L25 39.8245C22.8342 41.0749 20.1658 41.0749 18 39.8245L7.38045 33.6933C5.21464 32.4428 3.88045 30.1319 3.88045 27.6311V15.3687C3.88045 12.8678 5.21465 10.5569 7.38045 9.3065L18 3.1753Z" fill="#004850" stroke="#043B41" stroke-width="2"/>
<path d="M26.2277 22.759H26.0878C25.4817 22.4792 24.9686 22.2926 24.8755 22.2461C24.7356 22.1995 24.6423 22.1528 24.5025 22.1062C24.3626 22.0596 24.2693 21.9663 24.1294 21.9196L24.0829 21.8731L23.9894 21.8263C23.8961 21.7798 23.7097 21.6398 23.6164 21.5466L23.4765 21.5L23.43 21.5466C22.8704 22.0595 22.2176 22.2927 21.6113 22.2927C21.0517 22.2927 20.3989 22.0129 19.8393 21.4533L19.7927 21.4067L19.7461 21.4533C19.6529 21.5466 19.5596 21.6399 19.4664 21.7331C19.4198 21.7796 19.4198 21.7796 19.3731 21.8263C18.7202 22.2927 17.5544 22.6657 17.0881 22.8523C16.5285 23.0389 16.2953 23.3652 16.2488 23.4585C15.5493 24.4844 15.2696 26.4429 15.1763 27.5154C16.995 29.0076 19.3265 29.847 21.6581 29.847C24.0362 29.847 26.3212 29.0076 28.1399 27.562C28.0466 26.4895 27.7668 24.5309 27.0674 23.505C27.0671 23.3186 26.834 22.9921 26.2276 22.759L26.2277 22.759Z" fill="white"/>
<path d="M18.9533 18.6553C18.9999 18.7019 18.9999 18.7486 19.0466 18.7952C19.2798 20.2875 20.5388 21.733 21.6579 21.733C22.9636 21.733 24.2226 20.1942 24.4558 18.7952C24.4558 18.7486 24.5024 18.7019 24.5024 18.6553C24.5957 18.5621 24.6422 18.4222 24.689 18.2356C24.8288 17.676 24.7822 17.3963 24.7355 17.3495L24.689 17.3029C24.6424 17.2564 24.6424 17.1631 24.6424 17.0698C24.829 16.4169 25.0154 15.2511 24.3159 14.4585C24.2694 14.3652 23.8496 13.8989 22.9635 13.6191L22.4972 13.4326C21.7978 13.1994 21.3314 13.1528 21.3314 13.1528H21.2849H21.145H20.8653C20.772 13.1528 20.6787 13.1994 20.6321 13.1994C20.3989 13.2927 19.1866 13.8523 18.8134 15.0181C18.7668 15.158 18.6268 15.7176 18.86 17.0232C18.86 17.1165 18.8134 17.2098 18.7667 17.303V17.3496C18.6734 17.4894 18.6734 17.8159 18.8133 18.1889C18.8134 18.4222 18.86 18.562 18.9533 18.6553L18.9533 18.6553Z" fill="white"/>
</svg>
