<svg width="250" height="244" viewBox="0 0 250 244" fill="none" xmlns="http://www.w3.org/2000/svg">
<path d="M77.6504 14.8285L74.3305 2.4397L0 22.3569L6.63915 47.1338L56.1928 33.8557L101.339 202.341L126.116 195.702L77.6504 14.8285ZM119.475 170.924L243.361 137.729L250 162.506L126.114 195.701L119.475 170.924Z" fill="#6151FB" fill-opacity="0.03"/>
<path d="M107.655 97.0809L201.807 71.853L219.068 136.274L124.916 161.502L107.655 97.0809Z" fill="#6151FB" fill-opacity="0.03"/>
<path d="M88.4023 25.2279L182.555 0L199.816 64.4206L105.663 89.6485L88.4023 25.2279Z" fill="#6151FB" fill-opacity="0.03"/>
<path d="M140.983 191.719C146.85 213.614 133.856 236.118 111.961 241.984C90.0655 247.851 67.5609 234.857 61.6953 212.962C55.8287 191.067 68.8212 168.562 90.7153 162.696C112.611 156.831 135.115 169.823 140.981 191.719" fill="#6151FB" fill-opacity="0.03"/>
</svg>
