<svg width="121" height="121" viewBox="0 0 121 121" fill="none" xmlns="http://www.w3.org/2000/svg">
<path d="M51.25 7.07254C56.9739 3.76783 64.0261 3.76783 69.75 7.07254L102.145 25.7755C107.868 29.0802 111.395 35.1876 111.395 41.797V79.203C111.395 85.8124 107.868 91.9198 102.145 95.2245L69.75 113.927C64.0261 117.232 56.9739 117.232 51.25 113.927L18.8555 95.2245C13.1315 91.9198 9.60546 85.8124 9.60546 79.203V41.797C9.60546 35.1876 13.1315 29.0802 18.8555 25.7755L51.25 7.07254Z" fill="#6151FB" stroke="#4835FE" stroke-width="3"/>
<path d="M51.428 42.5175L50.8111 40.2156L37 43.9163L38.2336 48.52L47.441 46.0529L55.8294 77.3585L60.4331 76.1249L51.428 42.5175ZM59.1992 71.5211L82.2181 65.3533L83.4517 69.957L60.4328 76.1248L59.1992 71.5211Z" fill="white"/>
<path d="M57.0029 57.8005L74.4971 53.113L77.7043 65.0828L60.2102 69.7703L57.0029 57.8005Z" fill="white"/>
<path d="M53.4258 44.4497L70.9199 39.7622L74.1272 51.732L56.633 56.4195L53.4258 44.4497Z" fill="white"/>
<path d="M63.1956 75.3848C64.2856 79.4531 61.8714 83.6346 57.8031 84.7244C53.7348 85.8145 49.5533 83.4002 48.4634 79.3319C47.3733 75.2636 49.7874 71.0821 53.8555 69.9923C57.9238 68.9024 62.1053 71.3165 63.1952 75.3848" fill="white"/>
</svg>
