<?xml version="1.0" encoding="utf-8"?>
<!-- Generator: Adobe Illustrator 26.4.1, SVG Export Plug-In . SVG Version: 6.00 Build 0)  -->
<svg version="1.1" id="Layer_1" xmlns="http://www.w3.org/2000/svg" xmlns:xlink="http://www.w3.org/1999/xlink" x="0px" y="0px"
	 viewBox="0 0 1057.5 230.7" style="enable-background:new 0 0 1057.5 230.7;" xml:space="preserve">
<style type="text/css">
	.st0{fill:#D90119;}
	.st1{fill:#FFFFFF;}
	.st2{fill:#E1251B;}
</style>
<g>
	<g>
		<path class="st0" d="M62.2,120.8c-6.8-8.7-10.3-19.2-10.1-30.3C52.4,66,71.7,45.1,96,42.9c1.5-0.1,3-0.2,4.5-0.2
			c26.7,0,48.4,21.7,48.4,48.4c0,10.9-3.5,21.1-10.2,29.7l-38.3,48.3L62.2,120.8z"/>
		<path class="st1" d="M81.9,61.5H119c6,3.8,10.7,9.3,13.6,15.8H68.3C71.2,70.8,75.9,65.3,81.9,61.5z M71.7,103.7
			c-3.6,0.6-6.6-2.5-6-6c0.4-2.4,2.4-4.2,4.8-4.4c3.2-0.2,5.8,2.4,5.6,5.6C75.9,101.3,74,103.4,71.7,103.7z M89.4,133.6l-5.5-7v-41
			h5.5V133.6z M103.2,144.1l-2.8,3.5l-2.8-3.5V85.7h5.5V144.1z M117.1,126.6l-5.5,7V85.7h5.5V126.6z M131,103.7
			c-3.6,0.6-6.6-2.5-6-6c0.4-2.4,2.4-4.2,4.8-4.4c3.2-0.2,5.8,2.4,5.6,5.6C135.2,101.3,133.4,103.4,131,103.7z"/>
	</g>
	<g>
		<path d="M200.6,78.3H170V61.6h79.5v16.8h-30.4v90.8h-18.4V78.3z"/>
		<path d="M343.7,169.2h-20l-19.8-40.1h-21.8v40.1h-18.4V61.6h55.2c14.6,0,21.5,6.9,21.5,21.5v24c0,12.9-5.4,19.8-16.8,21.2
			L343.7,169.2z M316.2,112.6c4.1,0,5.7-1.5,5.7-5.8V84c0-4.1-1.5-5.7-5.7-5.7h-34.1v34.3H316.2z"/>
		<path d="M359.4,147.7V61.6h18.4v85c0,4.1,1.5,5.7,5.8,5.7h30.4c4.1,0,5.7-1.5,5.7-5.7v-85h18.4v86.1c0,14.6-6.9,21.5-21.5,21.5
			h-35.8C366.3,169.2,359.4,162.3,359.4,147.7z"/>
		<path d="M457.1,147.7V83.1c0-14.6,6.9-21.5,21.5-21.5h34.4c14.6,0,21.5,6.9,21.5,21.5v15.5h-18.4V84.2c0-4.1-1.5-5.7-5.7-5.7h-29
			c-4.3,0-5.8,1.5-5.8,5.7v62.4c0,4.1,1.5,5.7,5.8,5.7h29c4.1,0,5.7-1.5,5.7-5.7v-14.4h18.4v15.5c0,14.4-6.9,21.5-21.5,21.5h-34.4
			C464,169.2,457.1,162.1,457.1,147.7z"/>
		<path d="M618.3,169.2l-28.9-49.9l-18.3,22v28H553V61.6h18.1v54.7l44-54.7h22l-35.3,42.7l37.5,64.9H618.3z"/>
		<path d="M646.9,147.7v-12.6h18.1v11.8c0,4.3,1.5,5.8,5.7,5.8H700c4.2,0,5.7-1.5,5.7-5.8V134c0-4.9-2-6.5-7.1-7.5l-29.2-6.5
			c-12.9-2.9-22.1-7.5-22.1-22.1V83.1c0-14.6,6.9-21.5,21.5-21.5h32.1c14.6,0,21.5,6.9,21.5,21.5v11.5h-18V83.9
			c0-4.3-1.5-5.8-5.8-5.8h-27c-4.3,0-5.8,1.5-5.8,5.8v11.4c0,4.9,2,6.5,7.2,7.7l29,6.3c13.1,2.9,22.1,7.5,22.1,22.1v16.3
			c0,14.6-6.9,21.5-21.5,21.5h-34.1C653.9,169.2,646.9,162.3,646.9,147.7z"/>
		<path d="M766,78.3h-30.6V61.6h79.5v16.8h-30.4v90.8H766V78.3z"/>
		<path d="M827.5,147.7V83.1c0-14.6,6.9-21.5,21.5-21.5h37.7c14.6,0,21.5,6.9,21.5,21.5v64.5c0,14.6-6.9,21.5-21.5,21.5H849
			C834.4,169.2,827.5,162.3,827.5,147.7z M884.1,152.3c4.2,0,5.7-1.5,5.7-5.7V84.2c0-4.1-1.5-5.7-5.7-5.7h-32.3
			c-4.3,0-5.8,1.5-5.8,5.7v62.4c0,4.1,1.5,5.7,5.8,5.7H884.1z"/>
		<path d="M928.6,61.6H984c14.4,0,21.5,7.1,21.5,21.5v26.6c0,14.4-7.1,21.5-21.5,21.5h-36.9v38h-18.4V61.6z M981.4,114.3
			c4,0,5.7-1.7,5.7-5.7V84.2c0-3.8-1.7-5.7-5.7-5.7h-34.3v35.8H981.4z"/>
	</g>
</g>
<line class="st2" x1="-11.1" y1="-166" x2="167.3" y2="-166"/>
</svg>
