<svg id="RMIS_Logo" data-name="RMIS Logo" xmlns="http://www.w3.org/2000/svg" xmlns:xlink="http://www.w3.org/1999/xlink" viewBox="0 0 816 272"><defs><style>.cls-1{fill:#fff;}.cls-2{fill:url(#radial-gradient);}.cls-3{fill:url(#radial-gradient-2);}.cls-4{fill:url(#linear-gradient);}</style><radialGradient id="radial-gradient" cx="71.137" cy="1003.798" r="109.08" gradientTransform="translate(0 -1010)" gradientUnits="userSpaceOnUse"><stop offset="0.21" stop-color="#62b91e"/><stop offset="1" stop-color="#1a7226"/></radialGradient><radialGradient id="radial-gradient-2" cx="109.377" cy="1134.398" r="94.08" gradientTransform="translate(0 -1010)" gradientUnits="userSpaceOnUse"><stop offset="0" stop-color="#959ea6"/><stop offset="0.85" stop-color="#42515f"/></radialGradient><linearGradient id="linear-gradient" x1="67.557" y1="1310.102" x2="220.257" y2="1157.402" gradientTransform="matrix(1, 0, 0, -1, 0, 1298)" gradientUnits="userSpaceOnUse"><stop offset="0.3" stop-color="#fff" stop-opacity="0.3"/><stop offset="1" stop-color="#fff" stop-opacity="0"/></linearGradient></defs><g id="A_Truckstop.com_Company" data-name="A Truckstop.com Company"><path class="cls-1" d="M275.772,247.8H263.358L259.1,258.587h-2.362l12.289-30.68h1.358l12.037,30.68h-2.4Zm-11.64-1.922h10.93L270.9,234.868q-.524-1.294-1.254-3.594a33.423,33.423,0,0,1-1.234,3.633Z"/><path class="cls-1" d="M305.823,258.587h-2.152V230.04h-9.928v-2.008h22.006v2.008h-9.926Z"/><path class="cls-1" d="M328.706,235.431a17.714,17.714,0,0,1,3.094.293l-.4,1.984a12.236,12.236,0,0,0-2.945-.356,5.728,5.728,0,0,0-4.766,2.469,10.051,10.051,0,0,0-1.859,6.227v12.539h-2.07V235.872h1.756l.209,4.094h.146a9.64,9.64,0,0,1,2.988-3.52A7,7,0,0,1,328.706,235.431Z"/><path class="cls-1" d="M338.216,235.872v14.711q0,3.427,1.441,4.984a5.816,5.816,0,0,0,4.473,1.559q4.055,0,5.967-2.051t1.912-6.664V235.872h2.047v22.715H352.3l-.375-3.133H351.8q-2.219,3.55-7.879,3.551-7.755,0-7.754-8.3V235.872Z"/><path class="cls-1" d="M370.733,259.005a9.73,9.73,0,0,1-7.627-3.07q-2.759-3.077-2.759-8.571,0-5.643,2.863-8.789a10.076,10.076,0,0,1,7.838-3.144,15.812,15.812,0,0,1,5.642,1.023l-.564,1.84a16.648,16.648,0,0,0-5.121-.981,7.78,7.78,0,0,0-6.332,2.579q-2.154,2.583-2.152,7.429a10.961,10.961,0,0,0,2.152,7.2,7.381,7.381,0,0,0,6.019,2.606,14.777,14.777,0,0,0,5.746-1.109v1.921A13.012,13.012,0,0,1,370.733,259.005Z"/><path class="cls-1" d="M384.024,248.618l11.6-12.746h2.508l-8.945,9.695,9.718,13.02h-2.488l-8.631-11.473-3.719,3.387v8.086H382v-32.52h2.07v16.3l-.146,6.25Z"/><path class="cls-1" d="M416.8,252.673a5.4,5.4,0,0,1-2.32,4.691,11.3,11.3,0,0,1-6.584,1.641,15.691,15.691,0,0,1-7.231-1.4v-2.238a15.927,15.927,0,0,0,7.231,1.715A9.58,9.58,0,0,0,413,255.966a3.4,3.4,0,0,0,1.742-2.981,3.624,3.624,0,0,0-1.391-2.883,15.222,15.222,0,0,0-4.564-2.3,26.028,26.028,0,0,1-4.785-2.121,6.577,6.577,0,0,1-2.08-2,5.045,5.045,0,0,1-.7-2.727,4.655,4.655,0,0,1,2.14-4.035,10.422,10.422,0,0,1,5.988-1.484,17.944,17.944,0,0,1,6.981,1.379l-.773,1.882a16.334,16.334,0,0,0-6.208-1.379,8.994,8.994,0,0,0-4.41.918,2.826,2.826,0,0,0-1.629,2.551,3.517,3.517,0,0,0,1.264,2.84,17.542,17.542,0,0,0,4.943,2.383A24.6,24.6,0,0,1,414,248a6.511,6.511,0,0,1,2.1,2.016A4.924,4.924,0,0,1,416.8,252.673Z"/><path class="cls-1" d="M428.644,257.165a15.555,15.555,0,0,0,3.429-.332v1.672a11.048,11.048,0,0,1-3.472.5,5.636,5.636,0,0,1-4.438-1.61q-1.435-1.611-1.434-5.058V237.669h-3.363v-1.215l3.363-.937,1.047-5.141h1.063v5.5h6.668v1.8h-6.668v14.375a6.555,6.555,0,0,0,.922,3.867A3.336,3.336,0,0,0,428.644,257.165Z"/><path class="cls-1" d="M455.769,247.2q0,5.56-2.7,8.684a9.308,9.308,0,0,1-7.437,3.125,9.654,9.654,0,0,1-5.27-1.442,9.243,9.243,0,0,1-3.488-4.136,15.06,15.06,0,0,1-1.211-6.231q0-5.554,2.7-8.66a9.284,9.284,0,0,1,7.4-3.1,9.115,9.115,0,0,1,7.343,3.144Q455.771,241.722,455.769,247.2Zm-17.93,0q0,4.682,2.058,7.305a7.765,7.765,0,0,0,11.641,0q2.056-2.619,2.059-7.305t-2.078-7.293a7.075,7.075,0,0,0-5.844-2.59,6.952,6.952,0,0,0-5.8,2.579Q437.84,242.475,437.839,247.2Z"/><path class="cls-1" d="M471.776,259.005q-5.244,0-7.648-3.93h-.145l.063,1.758c.055,1.031.082,2.156.082,3.383v8.652h-2.066v-33h1.753l.4,3.238h.125q2.337-3.68,7.48-3.679a8.447,8.447,0,0,1,7.012,3.019q2.413,3.024,2.414,8.789,0,5.6-2.539,8.684A8.5,8.5,0,0,1,471.776,259.005Zm-.039-1.84a6.328,6.328,0,0,0,5.4-2.59q1.91-2.589,1.91-7.254,0-10.008-7.231-10.008-3.972,0-5.828,2.184t-1.863,7.113v.672q0,5.326,1.789,7.606T471.737,257.165Z"/><path class="cls-1" d="M487.12,256.958c0-1.367.555-2.051,1.672-2.051q1.712,0,1.711,2.051t-1.711,2.047C487.675,259.005,487.12,258.321,487.12,256.958Z"/><path class="cls-1" d="M506.784,259.005a9.737,9.737,0,0,1-7.629-3.07q-2.76-3.077-2.758-8.571,0-5.643,2.864-8.789a10.069,10.069,0,0,1,7.836-3.144,15.8,15.8,0,0,1,5.64,1.023l-.562,1.84a16.648,16.648,0,0,0-5.121-.981,7.778,7.778,0,0,0-6.332,2.579q-2.151,2.583-2.153,7.429a10.973,10.973,0,0,0,2.153,7.2,7.378,7.378,0,0,0,6.019,2.606,14.77,14.77,0,0,0,5.746-1.109v1.921A13.014,13.014,0,0,1,506.784,259.005Z"/><path class="cls-1" d="M536.835,247.2q0,5.56-2.7,8.684a9.31,9.31,0,0,1-7.438,3.125,9.648,9.648,0,0,1-5.269-1.442,9.238,9.238,0,0,1-3.489-4.136,15.076,15.076,0,0,1-1.211-6.231q0-5.554,2.7-8.66a9.282,9.282,0,0,1,7.4-3.1,9.117,9.117,0,0,1,7.344,3.144Q536.836,241.722,536.835,247.2Zm-17.93,0q0,4.682,2.059,7.305a7.764,7.764,0,0,0,11.64,0q2.058-2.619,2.059-7.305t-2.078-7.293a7.075,7.075,0,0,0-5.844-2.59,6.954,6.954,0,0,0-5.8,2.579Q518.906,242.475,518.905,247.2Z"/><path class="cls-1" d="M571.507,258.587v-14.9q0-3.322-1.3-4.848a4.924,4.924,0,0,0-3.969-1.524,6.49,6.49,0,0,0-5.164,1.922q-1.669,1.923-1.672,6.039v13.313H557.3V243.06q0-5.75-5.266-5.747-3.574,0-5.2,2.079t-1.633,6.656v12.539h-2.066V235.872h1.711l.441,3.113h.125a6.515,6.515,0,0,1,2.676-2.625,7.993,7.993,0,0,1,3.824-.929q5.367,0,6.895,4.035h.086a7.71,7.71,0,0,1,2.976-2.989,8.543,8.543,0,0,1,4.254-1.046,7.294,7.294,0,0,1,5.578,1.984q1.865,1.986,1.86,6.312v14.86Z"/><path class="cls-1" d="M605.593,229.517a11.547,11.547,0,0,0-9.051,3.679q-3.3,3.679-3.3,10.071,0,6.544,3.113,10.16t8.9,3.613a24.245,24.245,0,0,0,7.066-.98v1.878a23.051,23.051,0,0,1-7.566,1.067q-6.439,0-10.137-4.16t-3.7-11.618a18.246,18.246,0,0,1,1.766-8.214,12.8,12.8,0,0,1,5.078-5.485,15.01,15.01,0,0,1,7.7-1.933,18.5,18.5,0,0,1,8,1.672l-.86,1.921A15.5,15.5,0,0,0,605.593,229.517Z"/><path class="cls-1" d="M637.4,247.2q0,5.56-2.7,8.684a9.308,9.308,0,0,1-7.437,3.125,9.651,9.651,0,0,1-5.27-1.442,9.23,9.23,0,0,1-3.488-4.136A15.06,15.06,0,0,1,617.3,247.2q0-5.554,2.695-8.66a9.284,9.284,0,0,1,7.4-3.1,9.115,9.115,0,0,1,7.343,3.144Q637.4,241.722,637.4,247.2Zm-17.929,0q0,4.682,2.058,7.305a7.765,7.765,0,0,0,11.641,0q2.057-2.619,2.059-7.305t-2.079-7.293a7.071,7.071,0,0,0-5.843-2.59,6.952,6.952,0,0,0-5.8,2.579Q619.467,242.475,619.468,247.2Z"/><path class="cls-1" d="M672.069,258.587v-14.9q0-3.322-1.3-4.848a4.921,4.921,0,0,0-3.968-1.524,6.49,6.49,0,0,0-5.164,1.922q-1.671,1.923-1.672,6.039v13.313h-2.11V243.06q0-5.75-5.265-5.747-3.574,0-5.2,2.079t-1.633,6.656v12.539H643.69V235.872H645.4l.442,3.113h.125a6.509,6.509,0,0,1,2.676-2.625,7.99,7.99,0,0,1,3.824-.929q5.367,0,6.894,4.035h.086a7.719,7.719,0,0,1,2.977-2.989,8.543,8.543,0,0,1,4.254-1.046,7.3,7.3,0,0,1,5.578,1.984q1.863,1.986,1.859,6.312v14.86Z"/><path class="cls-1" d="M691.19,259.005q-5.244,0-7.648-3.93H683.4l.063,1.758c.055,1.031.082,2.156.082,3.383v8.652h-2.066v-33h1.753l.4,3.238h.125q2.338-3.68,7.48-3.679a8.447,8.447,0,0,1,7.012,3.019q2.413,3.024,2.414,8.789,0,5.6-2.539,8.684A8.5,8.5,0,0,1,691.19,259.005Zm-.039-1.84a6.328,6.328,0,0,0,5.4-2.59q1.91-2.589,1.91-7.254,0-10.008-7.231-10.008-3.972,0-5.828,2.184t-1.863,7.113v.672q0,5.326,1.789,7.606T691.151,257.165Z"/><path class="cls-1" d="M720.745,258.587l-.523-3.594h-.168a10.808,10.808,0,0,1-3.52,3.1,9.434,9.434,0,0,1-4.273.91,7.391,7.391,0,0,1-5.207-1.715,6.128,6.128,0,0,1-1.86-4.742,5.863,5.863,0,0,1,2.77-5.164q2.772-1.834,8.015-1.942l4.325-.125v-1.5a7.708,7.708,0,0,0-1.317-4.89,5.094,5.094,0,0,0-4.242-1.653,14.207,14.207,0,0,0-6.539,1.754l-.773-1.8a17.339,17.339,0,0,1,7.4-1.753q3.738,0,5.59,1.941t1.848,6.062v15.11Zm-8.359-1.461a7.238,7.238,0,0,0,7.836-7.859v-2.239l-3.973.168c-3.187.156-5.465.653-6.82,1.5a4.3,4.3,0,0,0-2.039,3.938,4.23,4.23,0,0,0,1.3,3.312A5.308,5.308,0,0,0,712.386,257.126Z"/><path class="cls-1" d="M745.468,258.587V243.852q0-3.427-1.442-4.984a5.831,5.831,0,0,0-4.472-1.555q-4.078,0-5.965,2.059t-1.9,6.676v12.539h-2.066V235.872h1.754l.4,3.113h.125q2.216-3.557,7.879-3.554,7.73,0,7.731,8.3v14.86Z"/><path class="cls-1" d="M751.069,235.872H753.2l4.8,12.746q2.2,5.871,2.781,7.922h.125q.879-2.7,2.863-8.047l4.805-12.621h2.133l-10.176,26.395a20.544,20.544,0,0,1-2.07,4.343,5.6,5.6,0,0,1-1.953,1.7,5.976,5.976,0,0,1-2.707.562,9.333,9.333,0,0,1-2.657-.437v-1.8a9.845,9.845,0,0,0,2.614.332,3.5,3.5,0,0,0,1.882-.5,4.74,4.74,0,0,0,1.473-1.559,20.521,20.521,0,0,0,1.524-3.344q.867-2.284,1.121-2.976Z"/></g><g id="RMIS"><path id="S" class="cls-1" d="M697.322,195.4c-3.2-1.2-3.6-2.4-3.6-6.8,0-17.2.8-22.8.8-26,0-2.8.8-5.2,2.4-5.2s2,1.6,2,3.2a51.408,51.408,0,0,0,1.6,10c4.4,14.8,16,20,28.4,20,18,0,26.8-12,26.8-22.8,0-9.6-2.8-18.8-19.6-32l-9.2-7.2c-22-17.2-29.6-31.2-29.6-47.2,0-22,18.4-37.6,46-37.6a107.5,107.5,0,0,1,26.4,3.2c1.6.4,2.8.8,2.8,2.4,0,2.4,0,8-.8,24-.4,4.4-.4,6-2,6-1.2,0-2-1.2-2-3.6a23.115,23.115,0,0,0-5.2-13.2c-2.8-3.6-8.8-9.6-21.6-9.6-14.8,0-23.6,8.4-23.6,20.4,0,9.2,4.4,16,21.2,28.8l5.6,4c24,18,32.8,32,32.8,50.8,0,11.6-4.4,25.2-18.8,34.8-10,6.4-19.093,9.18-31.6,9.18C713.411,200.975,705.722,199.4,697.322,195.4Z"/><path id="I" class="cls-1" d="M629.722,63c-.4-6.8-2.4-10-6.8-11.2a39.632,39.632,0,0,0-7.2-.8c-2,0-3.2-.4-3.2-2,0-1.2,1.6-1.6,4.8-1.6h50.4c2.4,0,4,.4,4,1.6,0,1.6-1.2,2-3.2,2a32.336,32.336,0,0,0-6,.4c-5.2.8-6.8,4.4-7.2,11.2-.4,6.4-.4,112.4.4,120.8.4,5.2,2,8.8,8,9.6a84.209,84.209,0,0,0,10,.8c2,0,3.2.4,3.2,1.6s-1.6,2-3.6,2h-56c-2.4,0-4-.4-4-2,0-.8.8-1.6,3.2-1.6a35.877,35.877,0,0,0,7.2-.8c4-.8,5.2-4,5.6-10C630.122,175,630.122,69,629.722,63Z"/><path id="RM" class="cls-1" d="M595.322,194.2a35.814,35.814,0,0,1-12.4-2c-6-1.6-8-7.6-9.6-20L554.922,49q-.6-6-3.6-6c-2,0-2.8,1.6-4.4,4.8l-54,113.6L438.522,49c-2.4-5.2-3.6-6-5.2-6s-2.8,1.6-3.2,5.2l-19.6,130a62.1,62.1,0,0,1-1.6,8.4c-2.4,6.4-6.4,7.6-9.2,7.6-3.2,0-9.2-2-20.4-13.6-11.6-12.4-25.6-30-43.2-52.4,20-16.4,26.4-30,26.4-44.8,0-13.2-8-23.6-13.6-27.2-10.8-7.2-24-8.4-36.8-8.4h-55.2c-2.8,0-4.4.4-4.4,1.6s1.2,1.6,3.2,1.6a41.27,41.27,0,0,1,7.6.4c6.4,1.2,8,4.4,8.4,11.2.4,6.4.4,111.2-.4,119.6-.8,5.6-1.6,10-5.6,10.8a29.8,29.8,0,0,1-7.2.8c-2.4,0-3.2.4-3.2,1.6s1.2,2,4,2h53.6c2.4,0,4-.4,4-2,0-.8-.8-1.6-2.4-1.6a84.629,84.629,0,0,1-9.6-.8c-6-.8-7.2-5.2-7.6-10.8-2-8-2-45.2-2-45.2,0-1.2.4-1.6,1.6-1.6l17.2.4a4.408,4.408,0,0,1,3.6,1.2c2.4,2.8,11.6,16.4,19.6,27.6,11.2,15.2,18.8,24.8,27.2,29.2,5.2,2.8,10,3.6,21.2,3.6h50.4c2.8,0,4.8-.4,4.8-2,0-.8-1.2-1.2-2.8-1.2a36.129,36.129,0,0,1-8.4-.8c-3.2-.8-6-2.4-6-6.4a73.935,73.935,0,0,1,.4-9.2l10.4-79.2h.8c6.8,14.8,18.8,40,20.8,44.4,2.4,5.6,18,36,22.8,45.2,3.2,6,5.2,10,6.8,10s2.8-1.6,7.2-11.2l43.6-90.4h.8l12,87.6c.8,5.6,0,8-.8,8.4-1.2.4-4,1.2-4,3.6,0,2,2.8,2,7.6,2h40.4c2.8,0,5.2-.4,5.2-2C598.522,194.6,596.922,194.2,595.322,194.2Zm-269.2-71.6c-3.6,2.4-6.4,2.4-14.4,2.4h-14.4c-2,0-2-2-2-4.4V60.2c0-1.6,0-2.8,1.2-2.8h11.2c11.6,0,30,7.6,30,36C338.522,109.4,332.122,118.2,326.122,122.6Z"/><path class="cls-1" d="M798.643,42.316c-8.217,0-14.265,5.737-14.265,13.643,0,7.6,6.048,13.488,14.265,13.488s14.262-5.89,14.262-13.488C812.905,48.053,806.858,42.316,798.643,42.316Zm.155,24.533c-6.845,0-11.512-4.511-11.512-11.044,0-6.69,4.667-10.89,11.357-10.89S810,49.115,810,55.805C810,62.338,805.33,66.849,798.8,66.849Z"/><path class="cls-1" d="M806.533,61.55c-.288,0-.573,0-2.439-2.152l-2.581-3.014c2.438-1.722,3.012-2.87,3.012-4.3,0-3.444-3.874-3.874-6.313-3.874H791.9c-.431,0-.719.144-.719.574,0,.287.143.431.288.431,1.147,0,1.72.143,1.72,1,0,0,.145,9.756,0,10.473-.143.862-.285.862-1.577.862a.379.379,0,0,0-.431.429c0,.431.719.575,1,.575h5.739a.526.526,0,0,0,.574-.575c0-.429-.143-.429-.431-.429a4.411,4.411,0,0,1-1.435-.144c-.143-.144-.285-.431-.285-3.013V57.1h1.72l2.011,2.726c2.151,2.87,3.728,2.727,5.594,2.727,1.149,0,1.292-.144,1.292-.575A.379.379,0,0,0,806.533,61.55Zm-8.519-6.314h-1.667V50.071c3.22,0,4.59.336,4.59,2.585A2.694,2.694,0,0,1,798.014,55.236Z"/></g><g id="Shield"><path class="cls-1" d="M74.777,203.238c21.6-29.6,57.6-110,159.2-180-81.6,13.2-146.8,99.6-162,121.2-15.2-21.2-45.2-44-69.6-47.2C18.377,109.638,49.057,157.078,74.777,203.238Z"/><path class="cls-2" d="M107.777,2.2s25.92,34.08,91.64,31.16C125.417,66.6,72.3,144.2,72.3,144.2c-24.68-31.12-50.12-41.68-61.4-45.12a304.353,304.353,0,0,1,4.64-65.76C81.7,36.478,107.777,2.2,107.777,2.2Z"/><path class="cls-3" d="M233.817,23.358a242.033,242.033,0,0,0-30.12,39.36q12.32,133.92-96,180-89.681-38.16-96.52-137c20,21.6,38.04,50,63.72,97.16C121.057,121.078,178.057,58.838,233.817,23.358Z"/><path class="cls-4" d="M201.057,61.078l-.56.88V63c.8,8.84,1.24,17.56,1.24,25.84,0,32.72-6.32,61.12-18.72,84.44q-3.2,5.88-6.84,11.4a560.492,560.492,0,0,0-48-56.8,463.468,463.468,0,0,1,88-88.52C211.657,45.278,206.377,52.6,201.057,61.078ZM85.737,87.6q8.64,7.56,16.8,15.16c20.56-22,49.6-48.32,83.68-66.32-47.08-1.36-70.8-21.44-78.44-29.56-8.28,8.84-34.72,31.16-88.8,29.6A656.776,656.776,0,0,1,85.737,87.6Z"/></g></svg>